<svg  fill="rgba(12,113,195,0.12)" viewBox="0 0 1920 1440" preserveAspectRatio="none" xmlns="http://www.w3.org/2000/svg"><g>
										<polygon points="1479.38 478.41 1252.46 0 1097.51 0 1412.89 664.9 1920 424.36 1920 269.41 1479.38 478.41"/>
										<polygon points="1436.38 61.07 1545.87 291.92 1776.72 182.42 1690.19 0 1565.13 0 1436.38 61.07"/>
										<polygon points="1920 0 1845.14 0 1920 157.81 1920 0"/>
										<polygon points="1346.39 851.39 942.56 0 787.61 0 1279.9 1037.88 1920 734.26 1920 579.31 1346.39 851.39"/>
										<polygon points="1213.4 1224.37 632.66 0 0 0 0 1440 1920 1440 1920 889.22 1213.4 1224.37"/>
									</g></svg>