<svg width="29" height="29" viewBox="0 0 29 29" fill="none" xmlns="http://www.w3.org/2000/svg">
<g clip-path="url(#clip0_1_128)">
<path d="M26.36 18.0601V14.5601C26.36 14.0861 26.1868 13.6759 25.8405 13.3296C25.4941 12.9832 25.084 12.8101 24.61 12.8101H15.86V9.31006H21.11C21.584 9.31006 21.9941 9.13688 22.3405 8.79053C22.6868 8.44417 22.86 8.03402 22.86 7.56006V5.81006C22.86 5.3361 22.6868 4.92594 22.3405 4.57959C21.9941 4.23324 21.584 4.06006 21.11 4.06006H8.86002C8.38606 4.06006 7.9759 4.23324 7.62955 4.57959C7.28319 4.92594 7.11002 5.3361 7.11002 5.81006V7.56006C7.11002 8.03402 7.28319 8.44417 7.62955 8.79053C7.9759 9.13688 8.38606 9.31006 8.86002 9.31006H14.11V12.8101H5.36002C4.88606 12.8101 4.4759 12.9832 4.12955 13.3296C3.78319 13.6759 3.61002 14.0861 3.61002 14.5601V18.0601C3.13606 18.0601 2.7259 18.2332 2.37955 18.5796C2.03319 18.9259 1.86002 19.3361 1.86002 19.8101V23.3101C1.86002 23.784 2.03319 24.1942 2.37955 24.5405C2.7259 24.8869 3.13606 25.0601 3.61002 25.0601H5.36002C5.83397 25.0601 6.24413 24.8869 6.59048 24.5405C6.93684 24.1942 7.11002 23.784 7.11002 23.3101V19.8101C7.11002 19.3361 6.93684 18.9259 6.59048 18.5796C6.24413 18.2332 5.83397 18.0601 5.36002 18.0601V14.5601H14.11V18.0601C13.6361 18.0601 13.2259 18.2332 12.8795 18.5796C12.5332 18.9259 12.36 19.3361 12.36 19.8101V23.3101C12.36 23.784 12.5332 24.1942 12.8795 24.5405C13.2259 24.8869 13.6361 25.0601 14.11 25.0601H15.86C16.334 25.0601 16.7441 24.8869 17.0905 24.5405C17.4368 24.1942 17.61 23.784 17.61 23.3101V19.8101C17.61 19.3361 17.4368 18.9259 17.0905 18.5796C16.7441 18.2332 16.334 18.0601 15.86 18.0601V14.5601H24.61V18.0601C24.1361 18.0601 23.7259 18.2332 23.3795 18.5796C23.0332 18.9259 22.86 19.3361 22.86 19.8101V23.3101C22.86 23.784 23.0332 24.1942 23.3795 24.5405C23.7259 24.8869 24.1361 25.0601 24.61 25.0601H26.36C26.834 25.0601 27.2441 24.8869 27.5905 24.5405C27.9368 24.1942 28.11 23.784 28.11 23.3101V19.8101C28.11 19.3361 27.9368 18.9259 27.5905 18.5796C27.2441 18.2332 26.834 18.0601 26.36 18.0601ZM8.86002 5.81006H21.11V7.56006H8.86002V5.81006ZM5.36002 21.5601V23.3101H3.61002V19.8101H5.36002V21.5601ZM15.86 23.3101H14.11V19.8101H15.86V23.3101ZM24.61 21.5601V19.8101H26.36V23.3101H24.61V21.5601Z" fill="white"/>
</g>
<defs>
<clipPath id="clip0_1_128">
<rect width="28" height="28" fill="white" transform="matrix(1 0 0 -1 0.110016 28.5601)"/>
</clipPath>
</defs>
</svg>
