<svg width="81" height="81" viewBox="0 0 81 81" fill="none" xmlns="http://www.w3.org/2000/svg">
<path d="M70.7555 18.0601C76.2242 18.0601 80.9117 22.5913 80.9117 28.0601C80.9117 31.8101 78.8805 35.0913 75.9117 36.8101V54.3101C75.9117 68.8413 63.568 80.5601 48.4117 80.5601C33.4117 80.5601 21.2242 69.3101 20.9117 55.0913C9.50547 52.7476 0.911716 42.7476 0.911716 30.5601V6.34131C0.911716 4.62256 2.16172 3.06006 3.88047 2.59131L13.7242 0.716309C15.7555 0.247559 17.6305 1.65381 18.0992 3.68506L18.568 6.18506C19.0367 8.21631 17.6305 10.0913 15.5992 10.5601L10.7555 11.4976V30.5601C10.7555 38.9976 17.6305 45.7163 25.9117 45.5601C34.193 45.5601 40.7555 38.6851 40.7555 30.4038V11.4976L36.068 10.5601C34.0367 10.0913 32.6305 8.06006 33.0992 6.02881L33.568 3.68506C34.0367 1.65381 35.9117 0.247559 37.943 0.716309L47.7867 2.74756C49.5055 3.06006 50.9117 4.62256 50.9117 6.34131V30.5601C50.9117 42.7476 42.318 52.7476 30.9117 55.0913C31.2242 63.6851 39.0367 70.5601 48.4117 70.5601C57.943 70.5601 65.9117 63.3726 65.9117 54.3101V36.8101C62.7867 35.0913 60.7555 31.6538 60.9117 27.9038C60.9117 22.5913 65.2867 18.2163 70.7555 18.0601ZM70.9117 30.5601C72.1617 30.5601 73.4117 29.4663 73.4117 28.0601C73.4117 26.8101 72.1617 25.5601 70.9117 25.5601C69.5055 25.5601 68.4117 26.8101 68.4117 28.0601C68.4117 29.4663 69.5055 30.5601 70.9117 30.5601Z" fill="white"/>
</svg>
