<svg width="34" height="29" viewBox="0 0 34 29" fill="none" xmlns="http://www.w3.org/2000/svg">
<path d="M23.4928 4.06006C23.2194 4.06006 23.0553 4.27881 23.0553 4.49756V5.37256C23.0553 5.646 23.2194 5.81006 23.4928 5.81006H32.0788L31.1491 9.31006H23.4928C23.2194 9.31006 23.0553 9.52881 23.0553 9.74756V10.6226C23.0553 10.896 23.2194 11.0601 23.4928 11.0601H30.6569L29.7272 14.5601H23.4928C23.2194 14.5601 23.0553 14.7788 23.0553 14.9976V15.8726C23.0553 16.146 23.2194 16.3101 23.4928 16.3101H29.235L28.3053 19.8101H12.5553V0.560059H33.5553L32.571 4.06006H23.4928ZM10.696 18.9351C10.86 19.3179 10.7506 19.7554 10.3678 20.0288L8.18033 21.3413C7.52408 21.7241 6.43033 21.6694 5.93814 21.0679C0.742828 15.4351 0.742828 6.90381 5.77408 1.21631C6.43033 0.560059 7.4147 0.395996 8.18033 0.833496L10.3678 2.20068C10.7506 2.41943 10.86 2.85693 10.696 3.29443L9.32877 6.73975C9.1647 7.12256 8.78189 7.34131 8.34439 7.28662L5.88345 7.06787C4.95377 9.69287 4.95377 12.5366 5.88345 15.1069L8.34439 14.8882C8.78189 14.8335 9.1647 15.0522 9.32877 15.4351L10.696 18.9351ZM28.3053 21.5601C30.2194 21.5601 31.8053 23.146 31.8053 25.0601V26.8101C31.8053 27.7944 30.985 28.5601 30.0553 28.5601H10.8053C9.82095 28.5601 9.05533 27.7944 9.05533 26.8101V25.0601C9.05533 23.146 10.5866 21.5601 12.5553 21.5601H28.3053ZM20.4303 26.8101C21.36 26.8101 22.1803 26.0444 22.1803 25.0601C22.1803 24.1304 21.36 23.3101 20.4303 23.3101C19.446 23.3101 18.6803 24.1304 18.6803 25.0601C18.6803 26.0444 19.446 26.8101 20.4303 26.8101Z" fill="white"/>
<a href="https://www.figma.com/design/w5nbthWVfi5BXI7r8KBIRd/ASAKA-MED-KOLLEJ?node-id=1-2">
<rect fill="black" fill-opacity="0" x="0.195312" y="-2.1" width="31.5" height="32.2"/>
</a>
</svg>
