<svg width="93" height="71" viewBox="0 0 93 71" fill="none" xmlns="http://www.w3.org/2000/svg">
<path d="M86.8583 42.5913C92.4833 50.5601 90.6083 61.8101 82.4833 67.4351C79.3583 69.6226 75.7645 70.5601 72.1708 70.5601C66.5458 70.5601 61.077 67.9038 57.6395 63.0601L37.0145 33.6851C36.2333 32.4351 35.6083 31.1851 35.1395 29.7788V53.0601C35.1395 62.7476 27.1708 70.5601 17.6395 70.5601C7.95203 70.5601 0.13953 62.7476 0.13953 53.0601V18.0601C0.13953 8.52881 7.95203 0.560059 17.6395 0.560059C27.0145 0.560059 34.5145 8.06006 34.9833 17.2788C36.2333 13.9976 38.4208 11.0288 41.3895 8.84131C44.5145 6.65381 48.1083 5.56006 51.702 5.56006C57.327 5.56006 62.7958 8.21631 66.3895 13.2163L86.8583 42.5913ZM25.1395 35.5601V18.0601C25.1395 13.9976 21.702 10.5601 17.6395 10.5601C13.4208 10.5601 10.1395 13.9976 10.1395 18.0601V35.5601H25.1395ZM55.452 42.5913L68.4208 33.6851L58.1083 18.9976C56.702 16.8101 54.202 15.5601 51.702 15.5601C50.1395 15.5601 48.577 16.1851 47.1708 17.1226C45.452 18.2163 44.3583 20.0913 43.8895 22.1226C43.577 24.1538 44.0458 26.3413 45.2958 28.0601L55.452 42.5913Z" fill="white"/>
</svg>
