<svg width="26" height="29" viewBox="0 0 26 29" fill="none" xmlns="http://www.w3.org/2000/svg">
<path d="M18.2288 18.1147C22.1116 18.2788 25.2834 21.5054 25.2834 25.4429V25.9351C25.2834 27.4116 24.0803 28.5601 22.6584 28.5601H3.40844C1.93188 28.5601 0.783439 27.4116 0.783439 25.9351V25.4429C0.783439 21.5054 3.90063 18.2788 7.78344 18.1147L13.0334 23.3101L18.2288 18.1147ZM1.49438 4.93506C0.510001 4.71631 0.510001 3.4585 1.49438 3.23975L11.9397 0.724121C12.6506 0.560059 13.3616 0.560059 14.0725 0.724121L24.5178 3.23975C25.5022 3.4585 25.5022 4.71631 24.5178 4.93506L19.2678 6.19287C19.7053 7.17725 20.0334 8.21631 20.0334 9.31006C20.0334 13.1929 16.8616 16.3101 13.0334 16.3101C9.15063 16.3101 6.03344 13.1929 6.03344 9.31006C6.03344 8.21631 6.30688 7.17725 6.79906 6.19287L3.18969 5.37256V8.21631C3.5725 8.43506 3.84594 8.87256 3.84594 9.31006C3.84594 9.80225 3.5725 10.1851 3.18969 10.4038L4.06469 13.7944C4.17406 14.1772 3.95531 14.5601 3.62719 14.5601H1.385C1.05688 14.5601 0.838126 14.1772 0.947501 13.7944L1.8225 10.4038C1.43969 10.1851 1.22094 9.80225 1.22094 9.31006C1.22094 8.87256 1.49438 8.43506 1.87719 8.21631V5.04443L1.49438 4.93506Z" fill="white"/>
<a href="https://www.figma.com/design/w5nbthWVfi5BXI7r8KBIRd/ASAKA-MED-KOLLEJ?node-id=1-2">
<rect fill="black" fill-opacity="0" x="0.173438" y="-2.1" width="24.5" height="32.2"/>
</a>
</svg>
