<svg width="82" height="81" viewBox="0 0 82 81" fill="none" xmlns="http://www.w3.org/2000/svg">
<path d="M32.538 27.9038L42.6942 17.7476L63.9442 38.9976L35.5067 67.4351C32.6942 70.0913 28.9442 71.3413 25.1942 71.0288L15.3505 69.9351L4.88172 80.2476C4.41297 80.7163 3.63172 80.7163 3.16297 80.2476L1.44422 78.5288C0.975468 78.0601 0.975468 77.2788 1.44422 76.6538L11.7567 66.3413L10.663 56.3413C10.3505 52.5913 11.6005 48.8413 14.2567 46.1851L18.4755 42.1226L27.0692 50.8726C27.538 51.3413 28.4755 51.3413 28.9442 50.8726L30.663 48.9976C31.1317 48.5288 31.1317 47.7476 30.663 47.2788L21.913 38.5288L28.9442 31.4976L37.6942 40.2476C38.163 40.7163 38.9442 40.7163 39.413 40.2476L41.288 38.3726C41.7567 37.9038 41.7567 37.1226 41.288 36.6538L32.538 27.9038ZM80.663 13.3726C81.1317 13.8413 81.1317 14.6226 80.663 15.0913L78.9442 16.9663C78.4755 17.4351 77.6942 17.4351 77.2255 16.9663L72.6942 12.4351L65.663 19.6226L77.2255 31.0288C77.6942 31.4976 77.6942 32.2788 77.2255 32.7476L71.913 38.0601C71.4442 38.6851 70.5067 38.6851 70.038 38.0601L67.3817 35.4038L46.288 14.3101L43.6317 11.6538C43.163 11.0288 43.163 10.2476 43.6317 9.77881L48.9442 4.46631C49.413 3.99756 50.1942 3.99756 50.663 4.46631L53.3192 7.12256L62.0692 16.0288L69.2567 8.99756L64.7255 4.46631C64.2567 3.99756 64.2567 3.21631 64.7255 2.74756L66.6005 1.02881C67.0692 0.560059 67.8505 0.560059 68.3192 1.02881L80.663 13.3726Z" fill="white"/>
</svg>
