<svg width="71" height="81" viewBox="0 0 71 81" fill="none" xmlns="http://www.w3.org/2000/svg">
<path d="M35.3439 40.5601C24.2502 40.5601 15.3439 31.6538 15.3439 20.5601C15.3439 9.62256 24.2502 0.560059 35.3439 0.560059C46.2814 0.560059 55.3439 9.62256 55.3439 20.5601C55.3439 31.6538 46.2814 40.5601 35.3439 40.5601ZM16.5939 66.8101C16.5939 64.7788 18.1564 63.0601 20.3439 63.0601C22.3752 63.0601 24.0939 64.7788 24.0939 66.8101C24.0939 68.9976 22.3752 70.5601 20.3439 70.5601C18.1564 70.5601 16.5939 68.9976 16.5939 66.8101ZM50.3439 45.7163C61.4377 46.3413 70.3439 55.4038 70.3439 66.6538V73.6851C70.3439 77.4351 67.0627 80.5601 63.3127 80.5601H7.21891C3.46891 80.5601 0.343906 77.4351 0.343906 73.6851V66.6538C0.343906 56.1851 7.84391 47.5913 17.8439 46.0288V58.5288C14.2502 59.6226 11.5939 62.9038 11.5939 66.9663C11.5939 71.6538 15.5002 75.7163 20.3439 75.7163C25.1877 75.7163 29.0939 71.6538 29.0939 66.9663C29.0939 62.9038 26.4377 59.6226 22.8439 58.5288V45.8726C23.9377 46.0288 25.1877 46.1851 26.2814 46.6538C29.0939 47.5913 32.2189 48.2163 35.3439 48.2163C38.4689 48.2163 41.4377 47.5913 44.2502 46.6538C44.5627 46.4976 44.8752 46.4976 45.3439 46.3413V53.3726C39.5627 54.6226 35.3439 59.6226 35.3439 65.5601V72.4351C35.3439 73.6851 36.2814 74.7788 37.3752 74.9351L42.3752 75.5601C43.0002 75.7163 43.6252 75.2476 43.7814 74.6226L44.2502 72.1226C44.4064 71.4976 43.9377 70.8726 43.3127 70.7163L40.3439 70.0913V65.8726C40.3439 55.4038 55.3439 55.8726 55.3439 65.5601V70.0913L52.2189 70.7163C51.5939 70.8726 51.1252 71.4976 51.2814 72.1226L51.7502 74.6226C51.9064 75.2476 52.5314 75.7163 53.1564 75.5601L58.3127 74.6226C59.4064 74.3101 60.3439 73.3726 60.3439 72.1226V65.5601C60.3439 59.6226 55.9689 54.4663 50.3439 53.3726V45.7163Z" fill="white"/>
</svg>
