<svg width="29" height="30" viewBox="0 0 29 30" fill="none" xmlns="http://www.w3.org/2000/svg">
<path d="M10.3206 12.9741C14.4222 13.7944 17.43 17.896 16.4456 22.3804C15.8441 25.3882 13.4378 27.7944 10.4847 28.396C5.39876 29.4897 0.914387 25.6069 0.914387 20.6851V7.12256C0.914387 6.41162 1.46126 5.81006 2.22689 5.81006H4.85189C5.56282 5.81006 6.16439 6.41162 6.16439 7.12256V20.6851C6.16439 22.1616 7.31282 23.3101 8.78939 23.3101C10.2113 23.3101 11.4144 22.1616 11.4144 20.6851C11.4144 19.5913 10.6488 18.6069 9.66439 18.2241C9.1722 18.0601 8.78939 17.6226 8.78939 17.021V14.2866C8.78939 13.4663 9.50032 12.8101 10.3206 12.9741ZM12.3441 0.560059C21.2581 1.05225 28.4222 8.21631 28.8597 17.1304C28.9144 17.6772 28.5316 18.0601 27.9847 18.0601H26.2347C25.7972 18.0601 25.4144 17.7319 25.3597 17.2397C24.9769 10.1851 19.2894 4.44287 12.2347 4.06006C11.7425 4.06006 11.4144 3.67725 11.4144 3.18506V1.43506C11.4144 0.942871 11.7972 0.560059 12.3441 0.560059ZM12.3441 5.81006C18.3597 6.30225 23.1722 11.1147 23.6097 17.1304C23.6644 17.6226 23.2816 18.0601 22.7347 18.0601H20.9847C20.5472 18.0601 20.1644 17.7319 20.1097 17.2944C19.7269 13.0835 16.3909 9.69287 12.18 9.36475C11.7425 9.31006 11.4144 8.92725 11.4144 8.48975V6.73975C11.4144 6.19287 11.8519 5.81006 12.3441 5.81006Z" fill="white"/>
<a href="https://www.figma.com/design/w5nbthWVfi5BXI7r8KBIRd/ASAKA-MED-KOLLEJ?node-id=1-2">
<rect fill="black" fill-opacity="0" x="0.184376" y="-2.1" width="28" height="32.2"/>
</a>
</svg>
