<svg width="201" height="196" viewBox="0 0 201 196" fill="none" xmlns="http://www.w3.org/2000/svg">
<path d="M75.9683 3.63774V12.2798H74.1411V3.63774H75.9683ZM78.5476 14.7104C78.3197 14.7104 78.1059 14.6921 77.9062 14.6555C77.7093 14.6217 77.5461 14.5781 77.4167 14.5247L77.8218 13.1828C78.0328 13.2475 78.2227 13.2827 78.3915 13.2883C78.5631 13.2939 78.7108 13.2545 78.8345 13.1702C78.9611 13.0858 79.0638 12.9423 79.1426 12.7397L79.2481 12.4655L76.923 5.79825H78.8134L80.1553 10.5581H80.2228L81.5774 5.79825H83.4805L80.9613 12.9803C80.8403 13.3291 80.6758 13.6329 80.4676 13.8917C80.2622 14.1534 80.002 14.3545 79.6869 14.4952C79.3719 14.6386 78.9921 14.7104 78.5476 14.7104ZM88.5568 9.52007V5.79825H90.3545V12.2798H88.6286V11.1025H88.5611C88.4148 11.4823 88.1714 11.7875 87.831 12.0182C87.4935 12.2488 87.0813 12.3642 86.5947 12.3642C86.1614 12.3642 85.7803 12.2657 85.4511 12.0688C85.122 11.8719 84.8646 11.592 84.6789 11.2291C84.496 10.8662 84.4032 10.4315 84.4004 9.92517V5.79825H86.198V9.60446C86.2008 9.98705 86.3035 10.2895 86.506 10.5117C86.7086 10.734 86.9801 10.8451 87.3205 10.8451C87.5371 10.8451 87.7396 10.7958 87.9281 10.6974C88.1166 10.5961 88.2685 10.447 88.3838 10.2501C88.502 10.0532 88.5597 9.80983 88.5568 9.52007ZM93.59 3.63774V12.2798H91.7923V3.63774H93.59ZM97.7633 12.2798V10.9632L100.839 8.11489C101.101 7.86171 101.321 7.63384 101.498 7.43129C101.678 7.22875 101.814 7.03042 101.907 6.83631C102 6.63939 102.046 6.42699 102.046 6.19913C102.046 5.94594 101.989 5.72792 101.873 5.54507C101.758 5.3594 101.6 5.21733 101.401 5.11887C101.201 5.0176 100.975 4.96696 100.721 4.96696C100.457 4.96696 100.226 5.02041 100.029 5.12731C99.8324 5.23421 99.6805 5.38753 99.5736 5.58726C99.4667 5.787 99.4132 6.02471 99.4132 6.3004H97.6789C97.6789 5.73495 97.8069 5.24406 98.0629 4.82771C98.3189 4.41136 98.6776 4.08925 99.1389 3.86139C99.6003 3.63352 100.132 3.51959 100.734 3.51959C101.353 3.51959 101.892 3.6293 102.35 3.84873C102.812 4.06534 103.17 4.36635 103.426 4.75175C103.682 5.13716 103.81 5.57882 103.81 6.07675C103.81 6.40308 103.745 6.72519 103.616 7.04308C103.489 7.36096 103.263 7.71402 102.937 8.10223C102.61 8.48764 102.15 8.9504 101.557 9.49053L100.295 10.7269V10.786H103.924V12.2798H97.7633ZM108.637 12.4697C107.911 12.4669 107.286 12.2882 106.763 11.9338C106.243 11.5793 105.842 11.0659 105.56 10.3936C105.282 9.72121 105.144 8.91243 105.147 7.9672C105.147 7.02479 105.286 6.22163 105.565 5.55772C105.846 4.89382 106.247 4.38885 106.767 4.04284C107.29 3.694 107.914 3.51959 108.637 3.51959C109.36 3.51959 109.981 3.694 110.502 4.04284C111.025 4.39167 111.427 4.89804 111.708 5.56194C111.99 6.22304 112.129 7.02479 112.126 7.9672C112.126 8.91524 111.986 9.72543 111.704 10.3978C111.426 11.0701 111.026 11.5835 110.506 11.938C109.985 12.2924 109.362 12.4697 108.637 12.4697ZM108.637 10.9548C109.132 10.9548 109.527 10.7058 109.822 10.2079C110.118 9.70996 110.264 8.96306 110.261 7.9672C110.261 7.31173 110.194 6.76598 110.059 6.32994C109.926 5.8939 109.738 5.56616 109.493 5.34674C109.251 5.12731 108.966 5.0176 108.637 5.0176C108.144 5.0176 107.75 5.26375 107.455 5.75605C107.16 6.24836 107.011 6.98541 107.008 7.9672C107.008 8.63111 107.074 9.1853 107.206 9.62978C107.341 10.0714 107.531 10.4034 107.776 10.6256C108.02 10.8451 108.307 10.9548 108.637 10.9548ZM113.429 12.2798V10.9632L116.505 8.11489C116.767 7.86171 116.986 7.63384 117.164 7.43129C117.344 7.22875 117.48 7.03042 117.573 6.83631C117.666 6.63939 117.712 6.42699 117.712 6.19913C117.712 5.94594 117.654 5.72792 117.539 5.54507C117.424 5.3594 117.266 5.21733 117.067 5.11887C116.867 5.0176 116.64 4.96696 116.387 4.96696C116.123 4.96696 115.892 5.02041 115.695 5.12731C115.498 5.23421 115.346 5.38753 115.239 5.58726C115.132 5.787 115.079 6.02471 115.079 6.3004H113.345C113.345 5.73495 113.473 5.24406 113.729 4.82771C113.985 4.41136 114.343 4.08925 114.805 3.86139C115.266 3.63352 115.798 3.51959 116.4 3.51959C117.019 3.51959 117.557 3.6293 118.016 3.84873C118.477 4.06534 118.836 4.36635 119.092 4.75175C119.348 5.13716 119.476 5.57882 119.476 6.07675C119.476 6.40308 119.411 6.72519 119.282 7.04308C119.155 7.36096 118.929 7.71402 118.603 8.10223C118.276 8.48764 117.816 8.9504 117.223 9.49053L115.961 10.7269V10.786H119.59V12.2798H113.429ZM120.597 10.7607V9.32174L124.205 3.63774H125.446V5.62946H124.712L122.437 9.22891V9.29642H127.564V10.7607H120.597ZM124.745 12.2798V10.3218L124.779 9.68464V3.63774H126.492V12.2798H124.745Z" fill="#40464D"/>
<path d="M10.38 24.5519C11.416 24.5519 12.3214 24.7572 13.096 25.1679C13.8707 25.5785 14.468 26.1572 14.888 26.9039C15.3174 27.6412 15.532 28.4952 15.532 29.4659C15.532 30.4272 15.3174 31.2812 14.888 32.0279C14.468 32.7745 13.866 33.3532 13.082 33.7639C12.3074 34.1745 11.4067 34.3799 10.38 34.3799H6.69802V24.5519H10.38ZM10.226 32.3079C11.1314 32.3079 11.836 32.0605 12.34 31.5659C12.844 31.0712 13.096 30.3712 13.096 29.4659C13.096 28.5605 12.844 27.8559 12.34 27.3519C11.836 26.8479 11.1314 26.5959 10.226 26.5959H9.09202V32.3079H10.226ZM24.5839 26.5679V34.3799H22.1899V33.3159C21.9472 33.6612 21.6159 33.9412 21.1959 34.1559C20.7852 34.3612 20.3279 34.4639 19.8239 34.4639C19.2266 34.4639 18.6992 34.3332 18.2419 34.0719C17.7846 33.8012 17.4299 33.4139 17.1779 32.9099C16.9259 32.4059 16.7999 31.8132 16.7999 31.1319V26.5679H19.1799V30.8099C19.1799 31.3325 19.3152 31.7385 19.5859 32.0279C19.8566 32.3172 20.2206 32.4619 20.6779 32.4619C21.1446 32.4619 21.5132 32.3172 21.7839 32.0279C22.0546 31.7385 22.1899 31.3325 22.1899 30.8099V26.5679H24.5839Z" fill="#40464D"/>
<path d="M39.874 34.4779C39.1553 34.4779 38.5113 34.3612 37.942 34.1279C37.3727 33.8945 36.9153 33.5492 36.57 33.0919C36.234 32.6345 36.0567 32.0839 36.038 31.4399H38.586C38.6233 31.8039 38.7493 32.0839 38.964 32.2799C39.1787 32.4665 39.4587 32.5599 39.804 32.5599C40.1587 32.5599 40.4387 32.4805 40.644 32.3219C40.8493 32.1539 40.952 31.9252 40.952 31.6359C40.952 31.3932 40.868 31.1925 40.7 31.0339C40.5413 30.8752 40.3407 30.7445 40.098 30.6419C39.8647 30.5392 39.5287 30.4225 39.09 30.2919C38.4553 30.0959 37.9373 29.8999 37.536 29.7039C37.1347 29.5079 36.7893 29.2185 36.5 28.8359C36.2107 28.4532 36.066 27.9539 36.066 27.3379C36.066 26.4232 36.3973 25.7092 37.06 25.1959C37.7227 24.6732 38.586 24.4119 39.65 24.4119C40.7327 24.4119 41.6053 24.6732 42.268 25.1959C42.9307 25.7092 43.2853 26.4279 43.332 27.3519H40.742C40.7233 27.0345 40.6067 26.7872 40.392 26.6099C40.1773 26.4232 39.902 26.3299 39.566 26.3299C39.2767 26.3299 39.0433 26.4092 38.866 26.5679C38.6887 26.7172 38.6 26.9365 38.6 27.2259C38.6 27.5432 38.7493 27.7905 39.048 27.9679C39.3467 28.1452 39.8133 28.3365 40.448 28.5419C41.0827 28.7565 41.596 28.9619 41.988 29.1579C42.3893 29.3539 42.7347 29.6385 43.024 30.0119C43.3133 30.3852 43.458 30.8659 43.458 31.4539C43.458 32.0139 43.3133 32.5225 43.024 32.9799C42.744 33.4372 42.3333 33.8012 41.792 34.0719C41.2507 34.3425 40.6113 34.4779 39.874 34.4779ZM52.2953 30.3479C52.2953 30.5719 52.2813 30.8052 52.2533 31.0479H46.8353C46.8726 31.5332 47.0266 31.9065 47.2973 32.1679C47.5773 32.4199 47.918 32.5459 48.3193 32.5459C48.9166 32.5459 49.332 32.2939 49.5653 31.7899H52.1133C51.9826 32.3032 51.7446 32.7652 51.3993 33.1759C51.0633 33.5865 50.6386 33.9085 50.1253 34.1419C49.612 34.3752 49.038 34.4919 48.4033 34.4919C47.638 34.4919 46.9566 34.3285 46.3593 34.0019C45.762 33.6752 45.2953 33.2085 44.9593 32.6019C44.6233 31.9952 44.4553 31.2859 44.4553 30.4739C44.4553 29.6619 44.6186 28.9525 44.9453 28.3459C45.2813 27.7392 45.748 27.2725 46.3453 26.9459C46.9426 26.6192 47.6286 26.4559 48.4033 26.4559C49.1593 26.4559 49.8313 26.6145 50.4193 26.9319C51.0073 27.2492 51.4646 27.7019 51.7913 28.2899C52.1273 28.8779 52.2953 29.5639 52.2953 30.3479ZM49.8453 29.7179C49.8453 29.3072 49.7053 28.9805 49.4253 28.7379C49.1453 28.4952 48.7953 28.3739 48.3753 28.3739C47.974 28.3739 47.6333 28.4905 47.3533 28.7239C47.0826 28.9572 46.9146 29.2885 46.8493 29.7179H49.8453Z" fill="#40464D"/>
<path d="M63.522 29.4519C63.522 28.4812 63.732 27.6179 64.152 26.8619C64.572 26.0965 65.1553 25.5039 65.902 25.0839C66.658 24.6545 67.512 24.4399 68.464 24.4399C69.6307 24.4399 70.6293 24.7479 71.46 25.3639C72.2907 25.9799 72.846 26.8199 73.126 27.8839H70.494C70.298 27.4732 70.018 27.1605 69.654 26.9459C69.2993 26.7312 68.8933 26.6239 68.436 26.6239C67.6987 26.6239 67.1013 26.8805 66.644 27.3939C66.1867 27.9072 65.958 28.5932 65.958 29.4519C65.958 30.3105 66.1867 30.9965 66.644 31.5099C67.1013 32.0232 67.6987 32.2799 68.436 32.2799C68.8933 32.2799 69.2993 32.1725 69.654 31.9579C70.018 31.7432 70.298 31.4305 70.494 31.0199H73.126C72.846 32.0839 72.2907 32.9239 71.46 33.5399C70.6293 34.1465 69.6307 34.4499 68.464 34.4499C67.512 34.4499 66.658 34.2399 65.902 33.8199C65.1553 33.3905 64.572 32.7979 64.152 32.0419C63.732 31.2859 63.522 30.4225 63.522 29.4519ZM79.3941 26.4839C80.2901 26.4839 81.0087 26.7825 81.5501 27.3799C82.0914 27.9679 82.3621 28.7799 82.3621 29.8159V34.3799H79.9821V30.1379C79.9821 29.6152 79.8467 29.2092 79.5761 28.9199C79.3054 28.6305 78.9414 28.4859 78.4841 28.4859C78.0267 28.4859 77.6627 28.6305 77.3921 28.9199C77.1214 29.2092 76.9861 29.6152 76.9861 30.1379V34.3799H74.5921V24.0199H76.9861V27.6179C77.2287 27.2725 77.5601 26.9972 77.9801 26.7919C78.4001 26.5865 78.8714 26.4839 79.3941 26.4839Z" fill="#40464D"/>
<path d="M101.528 27.7159C101.528 28.2852 101.397 28.8079 101.136 29.2839C100.875 29.7505 100.473 30.1285 99.932 30.4179C99.3907 30.7072 98.7187 30.8519 97.916 30.8519H96.432V34.3799H94.038V24.5519H97.916C98.7 24.5519 99.3627 24.6872 99.904 24.9579C100.445 25.2285 100.851 25.6019 101.122 26.0779C101.393 26.5539 101.528 27.0999 101.528 27.7159ZM97.734 28.9479C98.1913 28.9479 98.532 28.8405 98.756 28.6259C98.98 28.4112 99.092 28.1079 99.092 27.7159C99.092 27.3239 98.98 27.0205 98.756 26.8059C98.532 26.5912 98.1913 26.4839 97.734 26.4839H96.432V28.9479H97.734ZM102.298 30.4599C102.298 29.6572 102.448 28.9525 102.746 28.3459C103.054 27.7392 103.47 27.2725 103.992 26.9459C104.515 26.6192 105.098 26.4559 105.742 26.4559C106.293 26.4559 106.774 26.5679 107.184 26.7919C107.604 27.0159 107.926 27.3099 108.15 27.6739V26.5679H110.544V34.3799H108.15V33.2739C107.917 33.6379 107.59 33.9319 107.17 34.1559C106.76 34.3799 106.279 34.4919 105.728 34.4919C105.094 34.4919 104.515 34.3285 103.992 34.0019C103.47 33.6659 103.054 33.1945 102.746 32.5879C102.448 31.9719 102.298 31.2625 102.298 30.4599ZM108.15 30.4739C108.15 29.8765 107.982 29.4052 107.646 29.0599C107.32 28.7145 106.918 28.5419 106.442 28.5419C105.966 28.5419 105.56 28.7145 105.224 29.0599C104.898 29.3959 104.734 29.8625 104.734 30.4599C104.734 31.0572 104.898 31.5332 105.224 31.8879C105.56 32.2332 105.966 32.4059 106.442 32.4059C106.918 32.4059 107.32 32.2332 107.646 31.8879C107.982 31.5425 108.15 31.0712 108.15 30.4739Z" fill="#40464D"/>
<path d="M128.448 24.5519V31.2439C128.448 32.2799 128.154 33.0779 127.566 33.6379C126.987 34.1979 126.203 34.4779 125.214 34.4779C124.178 34.4779 123.347 34.1839 122.722 33.5959C122.097 33.0079 121.784 32.1725 121.784 31.0899H124.164C124.164 31.5005 124.248 31.8132 124.416 32.0279C124.584 32.2332 124.827 32.3359 125.144 32.3359C125.433 32.3359 125.657 32.2425 125.816 32.0559C125.975 31.8692 126.054 31.5985 126.054 31.2439V24.5519H128.448ZM138.096 26.5679V34.3799H135.702V33.3159C135.459 33.6612 135.128 33.9412 134.708 34.1559C134.297 34.3612 133.84 34.4639 133.336 34.4639C132.738 34.4639 132.211 34.3332 131.754 34.0719C131.296 33.8012 130.942 33.4139 130.69 32.9099C130.438 32.4059 130.312 31.8132 130.312 31.1319V26.5679H132.692V30.8099C132.692 31.3325 132.827 31.7385 133.098 32.0279C133.368 32.3172 133.732 32.4619 134.19 32.4619C134.656 32.4619 135.025 32.3172 135.296 32.0279C135.566 31.7385 135.702 31.3325 135.702 30.8099V26.5679H138.096Z" fill="#40464D"/>
<path d="M153.374 34.4779C152.655 34.4779 152.011 34.3612 151.442 34.1279C150.873 33.8945 150.415 33.5492 150.07 33.0919C149.734 32.6345 149.557 32.0839 149.538 31.4399H152.086C152.123 31.8039 152.249 32.0839 152.464 32.2799C152.679 32.4665 152.959 32.5599 153.304 32.5599C153.659 32.5599 153.939 32.4805 154.144 32.3219C154.349 32.1539 154.452 31.9252 154.452 31.6359C154.452 31.3932 154.368 31.1925 154.2 31.0339C154.041 30.8752 153.841 30.7445 153.598 30.6419C153.365 30.5392 153.029 30.4225 152.59 30.2919C151.955 30.0959 151.437 29.8999 151.036 29.7039C150.635 29.5079 150.289 29.2185 150 28.8359C149.711 28.4532 149.566 27.9539 149.566 27.3379C149.566 26.4232 149.897 25.7092 150.56 25.1959C151.223 24.6732 152.086 24.4119 153.15 24.4119C154.233 24.4119 155.105 24.6732 155.768 25.1959C156.431 25.7092 156.785 26.4279 156.832 27.3519H154.242C154.223 27.0345 154.107 26.7872 153.892 26.6099C153.677 26.4232 153.402 26.3299 153.066 26.3299C152.777 26.3299 152.543 26.4092 152.366 26.5679C152.189 26.7172 152.1 26.9365 152.1 27.2259C152.1 27.5432 152.249 27.7905 152.548 27.9679C152.847 28.1452 153.313 28.3365 153.948 28.5419C154.583 28.7565 155.096 28.9619 155.488 29.1579C155.889 29.3539 156.235 29.6385 156.524 30.0119C156.813 30.3852 156.958 30.8659 156.958 31.4539C156.958 32.0139 156.813 32.5225 156.524 32.9799C156.244 33.4372 155.833 33.8012 155.292 34.0719C154.751 34.3425 154.111 34.4779 153.374 34.4779ZM163.233 26.4839C164.129 26.4839 164.848 26.7825 165.389 27.3799C165.931 27.9679 166.201 28.7799 166.201 29.8159V34.3799H163.821V30.1379C163.821 29.6152 163.686 29.2092 163.415 28.9199C163.145 28.6305 162.781 28.4859 162.323 28.4859C161.866 28.4859 161.502 28.6305 161.231 28.9199C160.961 29.2092 160.825 29.6152 160.825 30.1379V34.3799H158.431V24.0199H160.825V27.6179C161.068 27.2725 161.399 26.9972 161.819 26.7919C162.239 26.5865 162.711 26.4839 163.233 26.4839Z" fill="#40464D"/>
<path d="M186.296 24.5519L182.894 31.1319V34.3799H180.5V31.1319L177.098 24.5519H179.814L181.718 28.6679L183.608 24.5519H186.296ZM186.785 30.4599C186.785 29.6572 186.934 28.9525 187.233 28.3459C187.541 27.7392 187.956 27.2725 188.479 26.9459C189.001 26.6192 189.585 26.4559 190.229 26.4559C190.779 26.4559 191.26 26.5679 191.671 26.7919C192.091 27.0159 192.413 27.3099 192.637 27.6739V26.5679H195.031V34.3799H192.637V33.2739C192.403 33.6379 192.077 33.9319 191.657 34.1559C191.246 34.3799 190.765 34.4919 190.215 34.4919C189.58 34.4919 189.001 34.3285 188.479 34.0019C187.956 33.6659 187.541 33.1945 187.233 32.5879C186.934 31.9719 186.785 31.2625 186.785 30.4599ZM192.637 30.4739C192.637 29.8765 192.469 29.4052 192.133 29.0599C191.806 28.7145 191.405 28.5419 190.929 28.5419C190.453 28.5419 190.047 28.7145 189.711 29.0599C189.384 29.3959 189.221 29.8625 189.221 30.4599C189.221 31.0572 189.384 31.5332 189.711 31.8879C190.047 32.2332 190.453 32.4059 190.929 32.4059C191.405 32.4059 191.806 32.2332 192.133 31.8879C192.469 31.5425 192.637 31.0712 192.637 30.4739Z" fill="#40464D"/>
<path d="M6.46002 55.4297V53.9737H9.37202V64.1797H7.76202V55.4297H6.46002Z" fill="#9F9F9F"/>
<path d="M37.172 62.0097C38.068 61.235 38.7727 60.6004 39.286 60.1057C39.8087 59.6017 40.2427 59.079 40.588 58.5377C40.9333 57.9964 41.106 57.455 41.106 56.9137C41.106 56.3537 40.9707 55.915 40.7 55.5977C40.4387 55.2804 40.0233 55.1217 39.454 55.1217C38.9033 55.1217 38.474 55.299 38.166 55.6537C37.8673 55.999 37.7087 56.4657 37.69 57.0537H36.15C36.178 55.9897 36.4953 55.1777 37.102 54.6177C37.718 54.0484 38.4973 53.7637 39.44 53.7637C40.4573 53.7637 41.2507 54.0437 41.82 54.6037C42.3987 55.1637 42.688 55.9104 42.688 56.8437C42.688 57.5157 42.5153 58.1644 42.17 58.7897C41.834 59.4057 41.428 59.961 40.952 60.4557C40.4853 60.941 39.888 61.5057 39.16 62.1497L38.53 62.7097H42.968V64.0397H36.164V62.8777L37.172 62.0097Z" fill="#9F9F9F"/>
<path d="M69.042 56.4937C69.098 55.6257 69.4293 54.949 70.036 54.4637C70.652 53.9784 71.436 53.7357 72.388 53.7357C73.0413 53.7357 73.606 53.8524 74.082 54.0857C74.558 54.319 74.9173 54.6364 75.16 55.0377C75.4027 55.439 75.524 55.8917 75.524 56.3957C75.524 56.9744 75.37 57.469 75.062 57.8797C74.754 58.2904 74.3853 58.5657 73.956 58.7057V58.7617C74.5067 58.9297 74.936 59.2377 75.244 59.6857C75.552 60.1244 75.706 60.689 75.706 61.3797C75.706 61.9304 75.58 62.4204 75.328 62.8497C75.076 63.279 74.7027 63.6197 74.208 63.8717C73.7133 64.1144 73.1207 64.2357 72.43 64.2357C71.422 64.2357 70.5913 63.979 69.938 63.4657C69.294 62.943 68.9487 62.1964 68.902 61.2257H70.442C70.4793 61.7204 70.6707 62.1264 71.016 62.4437C71.3613 62.7517 71.828 62.9057 72.416 62.9057C72.9853 62.9057 73.424 62.7517 73.732 62.4437C74.04 62.1264 74.194 61.7204 74.194 61.2257C74.194 60.5724 73.984 60.1104 73.564 59.8397C73.1533 59.5597 72.5187 59.4197 71.66 59.4197H71.296V58.1037H71.674C72.43 58.0944 73.004 57.9684 73.396 57.7257C73.7973 57.483 73.998 57.1004 73.998 56.5777C73.998 56.1297 73.8533 55.775 73.564 55.5137C73.2747 55.243 72.864 55.1077 72.332 55.1077C71.8093 55.1077 71.4033 55.243 71.114 55.5137C70.8247 55.775 70.652 56.1017 70.596 56.4937H69.042Z" fill="#9F9F9F"/>
<path d="M96.734 62.0517V60.8477L101.438 54.0997H103.37V60.6657H104.672V62.0517H103.37V64.1797H101.802V62.0517H96.734ZM101.872 55.7237L98.568 60.6657H101.872V55.7237Z" fill="#9F9F9F"/>
<path d="M134.35 55.3457H129.66V58.1317C129.856 57.8704 130.145 57.651 130.528 57.4737C130.92 57.2964 131.335 57.2077 131.774 57.2077C132.558 57.2077 133.193 57.3757 133.678 57.7117C134.173 58.0477 134.523 58.4724 134.728 58.9857C134.943 59.499 135.05 60.0404 135.05 60.6097C135.05 61.3004 134.915 61.9164 134.644 62.4577C134.383 62.9897 133.986 63.4097 133.454 63.7177C132.931 64.0257 132.287 64.1797 131.522 64.1797C130.505 64.1797 129.688 63.9277 129.072 63.4237C128.456 62.9197 128.087 62.2524 127.966 61.4217H129.52C129.623 61.8604 129.851 62.2104 130.206 62.4717C130.561 62.7237 131.004 62.8497 131.536 62.8497C132.199 62.8497 132.693 62.649 133.02 62.2477C133.356 61.8464 133.524 61.3144 133.524 60.6517C133.524 59.9797 133.356 59.4664 133.02 59.1117C132.684 58.7477 132.189 58.5657 131.536 58.5657C131.079 58.5657 130.691 58.6824 130.374 58.9157C130.066 59.1397 129.842 59.4477 129.702 59.8397H128.19V53.9457H134.35V55.3457Z" fill="#9F9F9F"/>
<path d="M161.398 56.3397C161.295 55.9104 161.109 55.5884 160.838 55.3737C160.567 55.159 160.189 55.0517 159.704 55.0517C158.967 55.0517 158.416 55.3364 158.052 55.9057C157.688 56.4657 157.497 57.399 157.478 58.7057C157.721 58.295 158.075 57.9777 158.542 57.7537C159.009 57.5297 159.513 57.4177 160.054 57.4177C160.67 57.4177 161.211 57.553 161.678 57.8237C162.154 58.085 162.523 58.4677 162.784 58.9717C163.055 59.4757 163.19 60.0777 163.19 60.7777C163.19 61.431 163.059 62.0144 162.798 62.5277C162.546 63.041 162.168 63.447 161.664 63.7457C161.16 64.035 160.553 64.1797 159.844 64.1797C158.883 64.1797 158.127 63.9697 157.576 63.5497C157.035 63.1204 156.652 62.5184 156.428 61.7437C156.213 60.969 156.106 60.003 156.106 58.8457C156.106 55.4297 157.31 53.7217 159.718 53.7217C160.651 53.7217 161.384 53.9737 161.916 54.4777C162.457 54.9817 162.775 55.6024 162.868 56.3397H161.398ZM159.704 58.7617C159.135 58.7617 158.649 58.9344 158.248 59.2797C157.856 59.6157 157.66 60.1057 157.66 60.7497C157.66 61.3937 157.842 61.907 158.206 62.2897C158.579 62.663 159.097 62.8497 159.76 62.8497C160.348 62.8497 160.81 62.6677 161.146 62.3037C161.491 61.9397 161.664 61.4544 161.664 60.8477C161.664 60.213 161.496 59.709 161.16 59.3357C160.833 58.953 160.348 58.7617 159.704 58.7617Z" fill="#9F9F9F"/>
<path d="M189.958 55.2057L186.066 64.1797H184.456L188.39 55.3737H183.21V54.0157H189.958V55.2057Z" fill="#9F9F9F"/>
<path d="M8.39202 88.6455C7.42135 88.1602 6.93602 87.3948 6.93602 86.3495C6.93602 85.8455 7.06202 85.3835 7.31402 84.9635C7.56602 84.5435 7.94402 84.2122 8.44802 83.9695C8.95202 83.7175 9.56802 83.5915 10.296 83.5915C11.0147 83.5915 11.626 83.7175 12.13 83.9695C12.6434 84.2122 13.026 84.5435 13.278 84.9635C13.53 85.3835 13.656 85.8455 13.656 86.3495C13.656 86.8722 13.5207 87.3342 13.25 87.7355C12.9887 88.1275 12.6387 88.4308 12.2 88.6455C12.732 88.8415 13.152 89.1635 13.46 89.6115C13.768 90.0502 13.922 90.5682 13.922 91.1655C13.922 91.7722 13.768 92.3088 13.46 92.7755C13.152 93.2422 12.7227 93.6015 12.172 93.8535C11.6214 94.1055 10.996 94.2315 10.296 94.2315C9.59602 94.2315 8.97068 94.1055 8.42002 93.8535C7.87868 93.6015 7.45402 93.2422 7.14602 92.7755C6.83802 92.3088 6.68402 91.7722 6.68402 91.1655C6.68402 90.5588 6.83802 90.0362 7.14602 89.5975C7.45402 89.1588 7.86935 88.8415 8.39202 88.6455ZM12.13 86.5455C12.13 86.0228 11.9667 85.6215 11.64 85.3415C11.3134 85.0615 10.8654 84.9215 10.296 84.9215C9.73602 84.9215 9.29268 85.0615 8.96602 85.3415C8.63935 85.6215 8.47602 86.0275 8.47602 86.5595C8.47602 87.0262 8.64402 87.4088 8.98002 87.7075C9.32535 87.9968 9.76402 88.1415 10.296 88.1415C10.828 88.1415 11.2667 87.9922 11.612 87.6935C11.9574 87.3948 12.13 87.0122 12.13 86.5455ZM10.296 89.3455C9.68002 89.3455 9.17602 89.4995 8.78402 89.8075C8.40135 90.1062 8.21002 90.5402 8.21002 91.1095C8.21002 91.6415 8.39668 92.0755 8.77002 92.4115C9.14335 92.7382 9.65202 92.9015 10.296 92.9015C10.9307 92.9015 11.43 92.7335 11.794 92.3975C12.1674 92.0615 12.354 91.6322 12.354 91.1095C12.354 90.5495 12.1627 90.1155 11.78 89.8075C11.4067 89.4995 10.912 89.3455 10.296 89.3455Z" fill="#9F9F9F"/>
<path d="M38.278 91.2075C38.3713 91.6742 38.572 92.0288 38.88 92.2715C39.188 92.5142 39.6033 92.6355 40.126 92.6355C40.7887 92.6355 41.274 92.3742 41.582 91.8515C41.89 91.3288 42.044 90.4375 42.044 89.1775C41.82 89.4948 41.5027 89.7422 41.092 89.9195C40.6907 90.0875 40.252 90.1715 39.776 90.1715C39.1693 90.1715 38.6187 90.0502 38.124 89.8075C37.6293 89.5555 37.2373 89.1868 36.948 88.7015C36.668 88.2068 36.528 87.6095 36.528 86.9095C36.528 85.8828 36.8267 85.0662 37.424 84.4595C38.0307 83.8435 38.8613 83.5355 39.916 83.5355C41.1853 83.5355 42.086 83.9602 42.618 84.8095C43.1593 85.6495 43.43 86.9422 43.43 88.6875C43.43 89.8915 43.3273 90.8762 43.122 91.6415C42.926 92.4068 42.5807 92.9855 42.086 93.3775C41.5913 93.7695 40.9053 93.9655 40.028 93.9655C39.0293 93.9655 38.2593 93.7042 37.718 93.1815C37.1767 92.6588 36.8733 92.0008 36.808 91.2075H38.278ZM40.056 88.8275C40.616 88.8275 41.0547 88.6548 41.372 88.3095C41.6987 87.9548 41.862 87.4882 41.862 86.9095C41.862 86.2655 41.6893 85.7662 41.344 85.4115C41.008 85.0475 40.546 84.8655 39.958 84.8655C39.37 84.8655 38.9033 85.0522 38.558 85.4255C38.222 85.7895 38.054 86.2702 38.054 86.8675C38.054 87.4368 38.2173 87.9082 38.544 88.2815C38.88 88.6455 39.384 88.8275 40.056 88.8275Z" fill="#9F9F9F"/>
<path d="M65.67 85.2295V83.7735H68.582V93.9795H66.972V85.2295H65.67ZM70.7745 88.7435C70.7745 87.1288 71.0452 85.8688 71.5865 84.9635C72.1372 84.0488 73.0799 83.5915 74.4145 83.5915C75.7492 83.5915 76.6872 84.0488 77.2285 84.9635C77.7792 85.8688 78.0545 87.1288 78.0545 88.7435C78.0545 90.3768 77.7792 91.6555 77.2285 92.5795C76.6872 93.4942 75.7492 93.9515 74.4145 93.9515C73.0799 93.9515 72.1372 93.4942 71.5865 92.5795C71.0452 91.6555 70.7745 90.3768 70.7745 88.7435ZM76.4865 88.7435C76.4865 87.9875 76.4352 87.3482 76.3325 86.8255C76.2392 86.3028 76.0432 85.8782 75.7445 85.5515C75.4459 85.2155 75.0025 85.0475 74.4145 85.0475C73.8265 85.0475 73.3832 85.2155 73.0845 85.5515C72.7859 85.8782 72.5852 86.3028 72.4825 86.8255C72.3892 87.3482 72.3425 87.9875 72.3425 88.7435C72.3425 89.5275 72.3892 90.1855 72.4825 90.7175C72.5759 91.2495 72.7719 91.6788 73.0705 92.0055C73.3785 92.3322 73.8265 92.4955 74.4145 92.4955C75.0025 92.4955 75.4459 92.3322 75.7445 92.0055C76.0525 91.6788 76.2532 91.2495 76.3465 90.7175C76.4399 90.1855 76.4865 89.5275 76.4865 88.7435Z" fill="#9F9F9F"/>
<path d="M98.27 73.2295V71.7735H101.182V81.9795H99.572V73.2295H98.27ZM98.27 97.2295V95.7735H101.182V105.979H99.572V97.2295H98.27Z" fill="#9F9F9F"/>
<path d="M124.31 73.2295V71.7735H127.222V81.9795H125.612V73.2295H124.31ZM125.402 103.809C126.298 103.035 127.003 102.4 127.516 101.905C128.039 101.401 128.473 100.879 128.818 100.337C129.163 99.7962 129.336 99.2548 129.336 98.7135C129.336 98.1535 129.201 97.7148 128.93 97.3975C128.669 97.0802 128.253 96.9215 127.684 96.9215C127.133 96.9215 126.704 97.0988 126.396 97.4535C126.097 97.7988 125.939 98.2655 125.92 98.8535H124.38C124.408 97.7895 124.725 96.9775 125.332 96.4175C125.948 95.8482 126.727 95.5635 127.67 95.5635C128.687 95.5635 129.481 95.8435 130.05 96.4035C130.629 96.9635 130.918 97.7102 130.918 98.6435C130.918 99.3155 130.745 99.9642 130.4 100.589C130.064 101.205 129.658 101.761 129.182 102.255C128.715 102.741 128.118 103.305 127.39 103.949L126.76 104.509H131.198V105.839H124.394V104.677L125.402 103.809Z" fill="#9F9F9F"/>
<path d="M155.73 73.2295V71.7735H158.642V81.9795H157.032V73.2295H155.73ZM155.912 98.2935C155.968 97.4255 156.299 96.7488 156.906 96.2635C157.522 95.7782 158.306 95.5355 159.258 95.5355C159.911 95.5355 160.476 95.6522 160.952 95.8855C161.428 96.1188 161.787 96.4362 162.03 96.8375C162.273 97.2388 162.394 97.6915 162.394 98.1955C162.394 98.7742 162.24 99.2688 161.932 99.6795C161.624 100.09 161.255 100.365 160.826 100.505V100.561C161.377 100.729 161.806 101.037 162.114 101.485C162.422 101.924 162.576 102.489 162.576 103.179C162.576 103.73 162.45 104.22 162.198 104.649C161.946 105.079 161.573 105.419 161.078 105.671C160.583 105.914 159.991 106.035 159.3 106.035C158.292 106.035 157.461 105.779 156.808 105.265C156.164 104.743 155.819 103.996 155.772 103.025H157.312C157.349 103.52 157.541 103.926 157.886 104.243C158.231 104.551 158.698 104.705 159.286 104.705C159.855 104.705 160.294 104.551 160.602 104.243C160.91 103.926 161.064 103.52 161.064 103.025C161.064 102.372 160.854 101.91 160.434 101.639C160.023 101.359 159.389 101.219 158.53 101.219H158.166V99.9035H158.544C159.3 99.8942 159.874 99.7682 160.266 99.5255C160.667 99.2828 160.868 98.9002 160.868 98.3775C160.868 97.9295 160.723 97.5748 160.434 97.3135C160.145 97.0428 159.734 96.9075 159.202 96.9075C158.679 96.9075 158.273 97.0428 157.984 97.3135C157.695 97.5748 157.522 97.9015 157.466 98.2935H155.912Z" fill="#9F9F9F"/>
<path d="M183.5 73.2295V71.7735H186.412V81.9795H184.802V73.2295H183.5ZM183.514 103.851V102.647L188.218 95.8995H190.15V102.465H191.452V103.851H190.15V105.979H188.582V103.851H183.514ZM188.652 97.5235L185.348 102.465H188.652V97.5235Z" fill="#9F9F9F"/>
<path d="M6.46002 115.02V113.564H9.37202V123.77H7.76202V115.02H6.46002ZM18.1445 114.936H13.4545V117.722C13.6505 117.46 13.9399 117.241 14.3225 117.064C14.7145 116.886 15.1299 116.798 15.5685 116.798C16.3525 116.798 16.9872 116.966 17.4725 117.302C17.9672 117.638 18.3172 118.062 18.5225 118.576C18.7372 119.089 18.8445 119.63 18.8445 120.2C18.8445 120.89 18.7092 121.506 18.4385 122.048C18.1772 122.58 17.7805 123 17.2485 123.308C16.7259 123.616 16.0819 123.77 15.3165 123.77C14.2992 123.77 13.4825 123.518 12.8665 123.014C12.2505 122.51 11.8819 121.842 11.7605 121.012H13.3145C13.4172 121.45 13.6459 121.8 14.0005 122.062C14.3552 122.314 14.7985 122.44 15.3305 122.44C15.9932 122.44 16.4879 122.239 16.8145 121.838C17.1505 121.436 17.3185 120.904 17.3185 120.242C17.3185 119.57 17.1505 119.056 16.8145 118.702C16.4785 118.338 15.9839 118.156 15.3305 118.156C14.8732 118.156 14.4859 118.272 14.1685 118.506C13.8605 118.73 13.6365 119.038 13.4965 119.43H11.9845V113.536H18.1445V114.936Z" fill="#9F9F9F"/>
<path d="M36.08 115.02V113.564H38.992V123.77H37.382V115.02H36.08ZM46.6725 115.93C46.5699 115.5 46.3832 115.178 46.1125 114.964C45.8419 114.749 45.4639 114.642 44.9785 114.642C44.2412 114.642 43.6905 114.926 43.3265 115.496C42.9625 116.056 42.7712 116.989 42.7525 118.296C42.9952 117.885 43.3499 117.568 43.8165 117.344C44.2832 117.12 44.7872 117.008 45.3285 117.008C45.9445 117.008 46.4859 117.143 46.9525 117.414C47.4285 117.675 47.7972 118.058 48.0585 118.562C48.3292 119.066 48.4645 119.668 48.4645 120.368C48.4645 121.021 48.3339 121.604 48.0725 122.118C47.8205 122.631 47.4425 123.037 46.9385 123.336C46.4345 123.625 45.8279 123.77 45.1185 123.77C44.1572 123.77 43.4012 123.56 42.8505 123.14C42.3092 122.71 41.9265 122.108 41.7025 121.334C41.4879 120.559 41.3805 119.593 41.3805 118.436C41.3805 115.02 42.5845 113.312 44.9925 113.312C45.9259 113.312 46.6585 113.564 47.1905 114.068C47.7319 114.572 48.0492 115.192 48.1425 115.93H46.6725ZM44.9785 118.352C44.4092 118.352 43.9239 118.524 43.5225 118.87C43.1305 119.206 42.9345 119.696 42.9345 120.34C42.9345 120.984 43.1165 121.497 43.4805 121.88C43.8539 122.253 44.3719 122.44 45.0345 122.44C45.6225 122.44 46.0845 122.258 46.4205 121.894C46.7659 121.53 46.9385 121.044 46.9385 120.438C46.9385 119.803 46.7705 119.299 46.4345 118.926C46.1079 118.543 45.6225 118.352 44.9785 118.352Z" fill="#9F9F9F"/>
<path d="M65.77 115.02V113.564H68.682V123.77H67.072V115.02H65.77ZM77.3425 114.796L73.4505 123.77H71.8405L75.7745 114.964H70.5945V113.606H77.3425V114.796Z" fill="#9F9F9F"/>
<path d="M92.24 115.02V113.564H95.152V123.77H93.542V115.02H92.24ZM99.0665 118.436C98.0959 117.95 97.6105 117.185 97.6105 116.14C97.6105 115.636 97.7365 115.174 97.9885 114.754C98.2405 114.334 98.6185 114.002 99.1225 113.76C99.6265 113.508 100.243 113.382 100.971 113.382C101.689 113.382 102.301 113.508 102.805 113.76C103.318 114.002 103.701 114.334 103.953 114.754C104.205 115.174 104.331 115.636 104.331 116.14C104.331 116.662 104.195 117.124 103.925 117.526C103.663 117.918 103.313 118.221 102.875 118.436C103.407 118.632 103.827 118.954 104.135 119.402C104.443 119.84 104.597 120.358 104.597 120.956C104.597 121.562 104.443 122.099 104.135 122.566C103.827 123.032 103.397 123.392 102.847 123.644C102.296 123.896 101.671 124.022 100.971 124.022C100.271 124.022 99.6452 123.896 99.0945 123.644C98.5532 123.392 98.1285 123.032 97.8205 122.566C97.5125 122.099 97.3585 121.562 97.3585 120.956C97.3585 120.349 97.5125 119.826 97.8205 119.388C98.1285 118.949 98.5439 118.632 99.0665 118.436ZM102.805 116.336C102.805 115.813 102.641 115.412 102.315 115.132C101.988 114.852 101.54 114.712 100.971 114.712C100.411 114.712 99.9672 114.852 99.6405 115.132C99.3139 115.412 99.1505 115.818 99.1505 116.35C99.1505 116.816 99.3185 117.199 99.6545 117.498C99.9999 117.787 100.439 117.932 100.971 117.932C101.503 117.932 101.941 117.782 102.287 117.484C102.632 117.185 102.805 116.802 102.805 116.336ZM100.971 119.136C100.355 119.136 99.8505 119.29 99.4585 119.598C99.0759 119.896 98.8845 120.33 98.8845 120.9C98.8845 121.432 99.0712 121.866 99.4445 122.202C99.8179 122.528 100.327 122.692 100.971 122.692C101.605 122.692 102.105 122.524 102.469 122.188C102.842 121.852 103.029 121.422 103.029 120.9C103.029 120.34 102.837 119.906 102.455 119.598C102.081 119.29 101.587 119.136 100.971 119.136Z" fill="#9F9F9F"/>
<path d="M123.44 115.02V113.564H126.352V123.77H124.742V115.02H123.44ZM130.533 120.998C130.626 121.464 130.827 121.819 131.135 122.062C131.443 122.304 131.858 122.426 132.381 122.426C133.043 122.426 133.529 122.164 133.837 121.642C134.145 121.119 134.299 120.228 134.299 118.968C134.075 119.285 133.757 119.532 133.347 119.71C132.945 119.878 132.507 119.962 132.031 119.962C131.424 119.962 130.873 119.84 130.379 119.598C129.884 119.346 129.492 118.977 129.203 118.492C128.923 117.997 128.783 117.4 128.783 116.7C128.783 115.673 129.081 114.856 129.679 114.25C130.285 113.634 131.116 113.326 132.171 113.326C133.44 113.326 134.341 113.75 134.873 114.6C135.414 115.44 135.685 116.732 135.685 118.478C135.685 119.682 135.582 120.666 135.377 121.432C135.181 122.197 134.835 122.776 134.341 123.168C133.846 123.56 133.16 123.756 132.283 123.756C131.284 123.756 130.514 123.494 129.973 122.972C129.431 122.449 129.128 121.791 129.063 120.998H130.533ZM132.311 118.618C132.871 118.618 133.309 118.445 133.627 118.1C133.953 117.745 134.117 117.278 134.117 116.7C134.117 116.056 133.944 115.556 133.599 115.202C133.263 114.838 132.801 114.656 132.213 114.656C131.625 114.656 131.158 114.842 130.813 115.216C130.477 115.58 130.309 116.06 130.309 116.658C130.309 117.227 130.472 117.698 130.799 118.072C131.135 118.436 131.639 118.618 132.311 118.618Z" fill="#9F9F9F"/>
<path d="M152.742 121.6C153.638 120.825 154.343 120.19 154.856 119.696C155.379 119.192 155.813 118.669 156.158 118.128C156.503 117.586 156.676 117.045 156.676 116.504C156.676 115.944 156.541 115.505 156.27 115.188C156.009 114.87 155.593 114.712 155.024 114.712C154.473 114.712 154.044 114.889 153.736 115.244C153.437 115.589 153.279 116.056 153.26 116.644H151.72C151.748 115.58 152.065 114.768 152.672 114.208C153.288 113.638 154.067 113.354 155.01 113.354C156.027 113.354 156.821 113.634 157.39 114.194C157.969 114.754 158.258 115.5 158.258 116.434C158.258 117.106 158.085 117.754 157.74 118.38C157.404 118.996 156.998 119.551 156.522 120.046C156.055 120.531 155.458 121.096 154.73 121.74L154.1 122.3H158.538V123.63H151.734V122.468L152.742 121.6ZM159.94 118.534C159.94 116.919 160.211 115.659 160.752 114.754C161.303 113.839 162.245 113.382 163.58 113.382C164.915 113.382 165.853 113.839 166.394 114.754C166.945 115.659 167.22 116.919 167.22 118.534C167.22 120.167 166.945 121.446 166.394 122.37C165.853 123.284 164.915 123.742 163.58 123.742C162.245 123.742 161.303 123.284 160.752 122.37C160.211 121.446 159.94 120.167 159.94 118.534ZM165.652 118.534C165.652 117.778 165.601 117.138 165.498 116.616C165.405 116.093 165.209 115.668 164.91 115.342C164.611 115.006 164.168 114.838 163.58 114.838C162.992 114.838 162.549 115.006 162.25 115.342C161.951 115.668 161.751 116.093 161.648 116.616C161.555 117.138 161.508 117.778 161.508 118.534C161.508 119.318 161.555 119.976 161.648 120.508C161.741 121.04 161.937 121.469 162.236 121.796C162.544 122.122 162.992 122.286 163.58 122.286C164.168 122.286 164.611 122.122 164.91 121.796C165.218 121.469 165.419 121.04 165.512 120.508C165.605 119.976 165.652 119.318 165.652 118.534Z" fill="#9F9F9F"/>
<path d="M183.532 109.6C184.428 108.825 185.133 108.19 185.646 107.696C186.169 107.192 186.603 106.669 186.948 106.128C187.293 105.586 187.466 105.045 187.466 104.504C187.466 103.944 187.331 103.505 187.06 103.188C186.799 102.87 186.383 102.712 185.814 102.712C185.263 102.712 184.834 102.889 184.526 103.244C184.227 103.589 184.069 104.056 184.05 104.644H182.51C182.538 103.58 182.855 102.768 183.462 102.208C184.078 101.638 184.857 101.354 185.8 101.354C186.817 101.354 187.611 101.634 188.18 102.194C188.759 102.754 189.048 103.5 189.048 104.434C189.048 105.106 188.875 105.754 188.53 106.38C188.194 106.996 187.788 107.551 187.312 108.046C186.845 108.531 186.248 109.096 185.52 109.74L184.89 110.3H189.328V111.63H182.524V110.468L183.532 109.6ZM182.44 127.02V125.564H185.352V135.77H183.742V127.02H182.44Z" fill="#9F9F9F"/>
<path d="M7.55202 151.4C8.44802 150.625 9.15268 149.99 9.66602 149.496C10.1887 148.992 10.6227 148.469 10.968 147.928C11.3134 147.386 11.486 146.845 11.486 146.304C11.486 145.744 11.3507 145.305 11.08 144.988C10.8187 144.67 10.4034 144.512 9.83402 144.512C9.28335 144.512 8.85402 144.689 8.54602 145.044C8.24735 145.389 8.08868 145.856 8.07002 146.444H6.53002C6.55802 145.38 6.87535 144.568 7.48202 144.008C8.09802 143.438 8.87735 143.154 9.82002 143.154C10.8374 143.154 11.6307 143.434 12.2 143.994C12.7787 144.554 13.068 145.3 13.068 146.234C13.068 146.906 12.8954 147.554 12.55 148.18C12.214 148.796 11.808 149.351 11.332 149.846C10.8654 150.331 10.268 150.896 9.54002 151.54L8.91002 152.1H13.348V153.43H6.54402V152.268L7.55202 151.4ZM15.6321 151.4C16.5281 150.625 17.2328 149.99 17.7461 149.496C18.2688 148.992 18.7028 148.469 19.0481 147.928C19.3934 147.386 19.5661 146.845 19.5661 146.304C19.5661 145.744 19.4308 145.305 19.1601 144.988C18.8988 144.67 18.4834 144.512 17.9141 144.512C17.3634 144.512 16.9341 144.689 16.6261 145.044C16.3274 145.389 16.1688 145.856 16.1501 146.444H14.6101C14.6381 145.38 14.9554 144.568 15.5621 144.008C16.1781 143.438 16.9574 143.154 17.9001 143.154C18.9174 143.154 19.7108 143.434 20.2801 143.994C20.8588 144.554 21.1481 145.3 21.1481 146.234C21.1481 146.906 20.9754 147.554 20.6301 148.18C20.2941 148.796 19.8881 149.351 19.4121 149.846C18.9454 150.331 18.3481 150.896 17.6201 151.54L16.9901 152.1H21.4281V153.43H14.6241V152.268L15.6321 151.4Z" fill="#9F9F9F"/>
<path d="M37.172 151.4C38.068 150.625 38.7727 149.99 39.286 149.496C39.8087 148.992 40.2427 148.469 40.588 147.928C40.9333 147.386 41.106 146.845 41.106 146.304C41.106 145.744 40.9707 145.305 40.7 144.988C40.4387 144.67 40.0233 144.512 39.454 144.512C38.9033 144.512 38.474 144.689 38.166 145.044C37.8673 145.389 37.7087 145.856 37.69 146.444H36.15C36.178 145.38 36.4953 144.568 37.102 144.008C37.718 143.438 38.4973 143.154 39.44 143.154C40.4573 143.154 41.2507 143.434 41.82 143.994C42.3987 144.554 42.688 145.3 42.688 146.234C42.688 146.906 42.5153 147.554 42.17 148.18C41.834 148.796 41.428 149.351 40.952 149.846C40.4853 150.331 39.888 150.896 39.16 151.54L38.53 152.1H42.968V153.43H36.164V152.268L37.172 151.4ZM44.3421 145.884C44.3981 145.016 44.7294 144.339 45.3361 143.854C45.9521 143.368 46.7361 143.126 47.6881 143.126C48.3414 143.126 48.9061 143.242 49.3821 143.476C49.8581 143.709 50.2174 144.026 50.4601 144.428C50.7028 144.829 50.8241 145.282 50.8241 145.786C50.8241 146.364 50.6701 146.859 50.3621 147.27C50.0541 147.68 49.6854 147.956 49.2561 148.096V148.152C49.8068 148.32 50.2361 148.628 50.5441 149.076C50.8521 149.514 51.0061 150.079 51.0061 150.77C51.0061 151.32 50.8801 151.81 50.6281 152.24C50.3761 152.669 50.0028 153.01 49.5081 153.262C49.0134 153.504 48.4208 153.626 47.7301 153.626C46.7221 153.626 45.8914 153.369 45.2381 152.856C44.5941 152.333 44.2488 151.586 44.2021 150.616H45.7421C45.7794 151.11 45.9708 151.516 46.3161 151.834C46.6614 152.142 47.1281 152.296 47.7161 152.296C48.2854 152.296 48.7241 152.142 49.0321 151.834C49.3401 151.516 49.4941 151.11 49.4941 150.616C49.4941 149.962 49.2841 149.5 48.8641 149.23C48.4534 148.95 47.8188 148.81 46.9601 148.81H46.5961V147.494H46.9741C47.7301 147.484 48.3041 147.358 48.6961 147.116C49.0974 146.873 49.2981 146.49 49.2981 145.968C49.2981 145.52 49.1534 145.165 48.8641 144.904C48.5748 144.633 48.1641 144.498 47.6321 144.498C47.1094 144.498 46.7034 144.633 46.4141 144.904C46.1248 145.165 45.9521 145.492 45.8961 145.884H44.3421Z" fill="#9F9F9F"/>
<path d="M67.082 151.4C67.978 150.625 68.6827 149.99 69.196 149.496C69.7187 148.992 70.1527 148.469 70.498 147.928C70.8433 147.386 71.016 146.845 71.016 146.304C71.016 145.744 70.8807 145.305 70.61 144.988C70.3487 144.67 69.9333 144.512 69.364 144.512C68.8133 144.512 68.384 144.689 68.076 145.044C67.7773 145.389 67.6187 145.856 67.6 146.444H66.06C66.088 145.38 66.4053 144.568 67.012 144.008C67.628 143.438 68.4073 143.154 69.35 143.154C70.3673 143.154 71.1607 143.434 71.73 143.994C72.3087 144.554 72.598 145.3 72.598 146.234C72.598 146.906 72.4253 147.554 72.08 148.18C71.744 148.796 71.338 149.351 70.862 149.846C70.3953 150.331 69.798 150.896 69.07 151.54L68.44 152.1H72.878V153.43H66.074V152.268L67.082 151.4ZM74.0841 151.442V150.238L78.7881 143.49H80.7201V150.056H82.0221V151.442H80.7201V153.57H79.1521V151.442H74.0841ZM79.2221 145.114L75.9181 150.056H79.2221V145.114Z" fill="#9F9F9F"/>
<path d="M95.422 151.4C96.318 150.625 97.0227 149.99 97.536 149.496C98.0587 148.992 98.4927 148.469 98.838 147.928C99.1833 147.386 99.356 146.845 99.356 146.304C99.356 145.744 99.2207 145.305 98.95 144.988C98.6887 144.67 98.2733 144.512 97.704 144.512C97.1533 144.512 96.724 144.689 96.416 145.044C96.1173 145.389 95.9587 145.856 95.94 146.444H94.4C94.428 145.38 94.7453 144.568 95.352 144.008C95.968 143.438 96.7473 143.154 97.69 143.154C98.7073 143.154 99.5007 143.434 100.07 143.994C100.649 144.554 100.938 145.3 100.938 146.234C100.938 146.906 100.765 147.554 100.42 148.18C100.084 148.796 99.678 149.351 99.202 149.846C98.7353 150.331 98.138 150.896 97.41 151.54L96.78 152.1H101.218V153.43H94.414V152.268L95.422 151.4ZM109.2 144.736H104.51V147.522C104.706 147.26 104.995 147.041 105.378 146.864C105.77 146.686 106.185 146.598 106.624 146.598C107.408 146.598 108.043 146.766 108.528 147.102C109.023 147.438 109.373 147.862 109.578 148.376C109.793 148.889 109.9 149.43 109.9 150C109.9 150.69 109.765 151.306 109.494 151.848C109.233 152.38 108.836 152.8 108.304 153.108C107.781 153.416 107.137 153.57 106.372 153.57C105.355 153.57 104.538 153.318 103.922 152.814C103.306 152.31 102.937 151.642 102.816 150.812H104.37C104.473 151.25 104.701 151.6 105.056 151.862C105.411 152.114 105.854 152.24 106.386 152.24C107.049 152.24 107.543 152.039 107.87 151.638C108.206 151.236 108.374 150.704 108.374 150.042C108.374 149.37 108.206 148.856 107.87 148.502C107.534 148.138 107.039 147.956 106.386 147.956C105.929 147.956 105.541 148.072 105.224 148.306C104.916 148.53 104.692 148.838 104.552 149.23H103.04V143.336H109.2V144.736Z" fill="#9F9F9F"/>
<path d="M125.422 151.4C126.318 150.625 127.023 149.99 127.536 149.496C128.059 148.992 128.493 148.469 128.838 147.928C129.183 147.386 129.356 146.845 129.356 146.304C129.356 145.744 129.221 145.305 128.95 144.988C128.689 144.67 128.273 144.512 127.704 144.512C127.153 144.512 126.724 144.689 126.416 145.044C126.117 145.389 125.959 145.856 125.94 146.444H124.4C124.428 145.38 124.745 144.568 125.352 144.008C125.968 143.438 126.747 143.154 127.69 143.154C128.707 143.154 129.501 143.434 130.07 143.994C130.649 144.554 130.938 145.3 130.938 146.234C130.938 146.906 130.765 147.554 130.42 148.18C130.084 148.796 129.678 149.351 129.202 149.846C128.735 150.331 128.138 150.896 127.41 151.54L126.78 152.1H131.218V153.43H124.414V152.268L125.422 151.4ZM138.108 145.73C138.005 145.3 137.819 144.978 137.548 144.764C137.277 144.549 136.899 144.442 136.414 144.442C135.677 144.442 135.126 144.726 134.762 145.296C134.398 145.856 134.207 146.789 134.188 148.096C134.431 147.685 134.785 147.368 135.252 147.144C135.719 146.92 136.223 146.808 136.764 146.808C137.38 146.808 137.921 146.943 138.388 147.214C138.864 147.475 139.233 147.858 139.494 148.362C139.765 148.866 139.9 149.468 139.9 150.168C139.9 150.821 139.769 151.404 139.508 151.918C139.256 152.431 138.878 152.837 138.374 153.136C137.87 153.425 137.263 153.57 136.554 153.57C135.593 153.57 134.837 153.36 134.286 152.94C133.745 152.51 133.362 151.908 133.138 151.134C132.923 150.359 132.816 149.393 132.816 148.236C132.816 144.82 134.02 143.112 136.428 143.112C137.361 143.112 138.094 143.364 138.626 143.868C139.167 144.372 139.485 144.992 139.578 145.73H138.108ZM136.414 148.152C135.845 148.152 135.359 148.324 134.958 148.67C134.566 149.006 134.37 149.496 134.37 150.14C134.37 150.784 134.552 151.297 134.916 151.68C135.289 152.053 135.807 152.24 136.47 152.24C137.058 152.24 137.52 152.058 137.856 151.694C138.201 151.33 138.374 150.844 138.374 150.238C138.374 149.603 138.206 149.099 137.87 148.726C137.543 148.343 137.058 148.152 136.414 148.152Z" fill="#9F9F9F"/>
<path d="M153.722 139.4C154.618 138.625 155.323 137.99 155.836 137.496C156.359 136.992 156.793 136.469 157.138 135.928C157.483 135.386 157.656 134.845 157.656 134.304C157.656 133.744 157.521 133.305 157.25 132.988C156.989 132.67 156.573 132.512 156.004 132.512C155.453 132.512 155.024 132.689 154.716 133.044C154.417 133.389 154.259 133.856 154.24 134.444H152.7C152.728 133.38 153.045 132.568 153.652 132.008C154.268 131.438 155.047 131.154 155.99 131.154C157.007 131.154 157.801 131.434 158.37 131.994C158.949 132.554 159.238 133.3 159.238 134.234C159.238 134.906 159.065 135.554 158.72 136.18C158.384 136.796 157.978 137.351 157.502 137.846C157.035 138.331 156.438 138.896 155.71 139.54L155.08 140.1H159.518V141.43H152.714V140.268L153.722 139.4ZM159.308 156.596L155.416 165.57H153.806L157.74 156.764H152.56V155.406H159.308V156.596Z" fill="#9F9F9F"/>
<path d="M180.092 151.4C180.988 150.625 181.693 149.99 182.206 149.496C182.729 148.992 183.163 148.469 183.508 147.928C183.853 147.386 184.026 146.845 184.026 146.304C184.026 145.744 183.891 145.305 183.62 144.988C183.359 144.67 182.943 144.512 182.374 144.512C181.823 144.512 181.394 144.689 181.086 145.044C180.787 145.389 180.629 145.856 180.61 146.444H179.07C179.098 145.38 179.415 144.568 180.022 144.008C180.638 143.438 181.417 143.154 182.36 143.154C183.377 143.154 184.171 143.434 184.74 143.994C185.319 144.554 185.608 145.3 185.608 146.234C185.608 146.906 185.435 147.554 185.09 148.18C184.754 148.796 184.348 149.351 183.872 149.846C183.405 150.331 182.808 150.896 182.08 151.54L181.45 152.1H185.888V153.43H179.084V152.268L180.092 151.4ZM189.012 148.236C188.041 147.75 187.556 146.985 187.556 145.94C187.556 145.436 187.682 144.974 187.934 144.554C188.186 144.134 188.564 143.802 189.068 143.56C189.572 143.308 190.188 143.182 190.916 143.182C191.635 143.182 192.246 143.308 192.75 143.56C193.263 143.802 193.646 144.134 193.898 144.554C194.15 144.974 194.276 145.436 194.276 145.94C194.276 146.462 194.141 146.924 193.87 147.326C193.609 147.718 193.259 148.021 192.82 148.236C193.352 148.432 193.772 148.754 194.08 149.202C194.388 149.64 194.542 150.158 194.542 150.756C194.542 151.362 194.388 151.899 194.08 152.366C193.772 152.832 193.343 153.192 192.792 153.444C192.241 153.696 191.616 153.822 190.916 153.822C190.216 153.822 189.591 153.696 189.04 153.444C188.499 153.192 188.074 152.832 187.766 152.366C187.458 151.899 187.304 151.362 187.304 150.756C187.304 150.149 187.458 149.626 187.766 149.188C188.074 148.749 188.489 148.432 189.012 148.236ZM192.75 146.136C192.75 145.613 192.587 145.212 192.26 144.932C191.933 144.652 191.485 144.512 190.916 144.512C190.356 144.512 189.913 144.652 189.586 144.932C189.259 145.212 189.096 145.618 189.096 146.15C189.096 146.616 189.264 146.999 189.6 147.298C189.945 147.587 190.384 147.732 190.916 147.732C191.448 147.732 191.887 147.582 192.232 147.284C192.577 146.985 192.75 146.602 192.75 146.136ZM190.916 148.936C190.3 148.936 189.796 149.09 189.404 149.398C189.021 149.696 188.83 150.13 188.83 150.7C188.83 151.232 189.017 151.666 189.39 152.002C189.763 152.328 190.272 152.492 190.916 152.492C191.551 152.492 192.05 152.324 192.414 151.988C192.787 151.652 192.974 151.222 192.974 150.7C192.974 150.14 192.783 149.706 192.4 149.398C192.027 149.09 191.532 148.936 190.916 148.936Z" fill="#9F9F9F"/>
<path d="M7.55202 181.2C8.44802 180.425 9.15268 179.79 9.66602 179.296C10.1887 178.792 10.6227 178.269 10.968 177.728C11.3134 177.186 11.486 176.645 11.486 176.104C11.486 175.544 11.3507 175.105 11.08 174.788C10.8187 174.47 10.4034 174.312 9.83402 174.312C9.28335 174.312 8.85402 174.489 8.54602 174.844C8.24735 175.189 8.08868 175.656 8.07002 176.244H6.53002C6.55802 175.18 6.87535 174.368 7.48202 173.808C8.09802 173.238 8.87735 172.954 9.82002 172.954C10.8374 172.954 11.6307 173.234 12.2 173.794C12.7787 174.354 13.068 175.1 13.068 176.034C13.068 176.706 12.8954 177.354 12.55 177.98C12.214 178.596 11.808 179.151 11.332 179.646C10.8654 180.131 10.268 180.696 9.54002 181.34L8.91002 181.9H13.348V183.23H6.54402V182.068L7.55202 181.2ZM16.7381 180.598C16.8314 181.064 17.0321 181.419 17.3401 181.662C17.6481 181.904 18.0634 182.026 18.5861 182.026C19.2488 182.026 19.7341 181.764 20.0421 181.242C20.3501 180.719 20.5041 179.828 20.5041 178.568C20.2801 178.885 19.9628 179.132 19.5521 179.31C19.1508 179.478 18.7121 179.562 18.2361 179.562C17.6294 179.562 17.0788 179.44 16.5841 179.198C16.0894 178.946 15.6974 178.577 15.4081 178.092C15.1281 177.597 14.9881 177 14.9881 176.3C14.9881 175.273 15.2868 174.456 15.8841 173.85C16.4908 173.234 17.3214 172.926 18.3761 172.926C19.6454 172.926 20.5461 173.35 21.0781 174.2C21.6194 175.04 21.8901 176.332 21.8901 178.078C21.8901 179.282 21.7874 180.266 21.5821 181.032C21.3861 181.797 21.0408 182.376 20.5461 182.768C20.0514 183.16 19.3654 183.356 18.4881 183.356C17.4894 183.356 16.7194 183.094 16.1781 182.572C15.6368 182.049 15.3334 181.391 15.2681 180.598H16.7381ZM18.5161 178.218C19.0761 178.218 19.5148 178.045 19.8321 177.7C20.1588 177.345 20.3221 176.878 20.3221 176.3C20.3221 175.656 20.1494 175.156 19.8041 174.802C19.4681 174.438 19.0061 174.256 18.4181 174.256C17.8301 174.256 17.3634 174.442 17.0181 174.816C16.6821 175.18 16.5141 175.66 16.5141 176.258C16.5141 176.827 16.6774 177.298 17.0041 177.672C17.3401 178.036 17.8441 178.218 18.5161 178.218Z" fill="#9F9F9F"/>
<path d="M36.164 176.034C36.2013 175.035 36.528 174.265 37.144 173.724C37.76 173.182 38.5953 172.912 39.65 172.912C40.35 172.912 40.9473 173.033 41.442 173.276C41.946 173.518 42.324 173.85 42.576 174.27C42.8373 174.69 42.968 175.161 42.968 175.684C42.968 176.3 42.814 176.804 42.506 177.196C42.198 177.578 41.8387 177.84 41.428 177.98V178.036C41.96 178.213 42.38 178.507 42.688 178.918C42.996 179.328 43.15 179.856 43.15 180.5C43.15 181.078 43.0147 181.592 42.744 182.04C42.4827 182.478 42.0953 182.824 41.582 183.076C41.078 183.328 40.476 183.454 39.776 183.454C38.656 183.454 37.76 183.178 37.088 182.628C36.4253 182.077 36.0753 181.246 36.038 180.136H38.362C38.3713 180.546 38.488 180.873 38.712 181.116C38.936 181.349 39.2627 181.466 39.692 181.466C40.056 181.466 40.336 181.363 40.532 181.158C40.7373 180.943 40.84 180.663 40.84 180.318C40.84 179.87 40.6953 179.548 40.406 179.352C40.126 179.146 39.6733 179.044 39.048 179.044H38.6V177.098H39.048C39.524 177.098 39.9067 177.018 40.196 176.86C40.4947 176.692 40.644 176.398 40.644 175.978C40.644 175.642 40.5507 175.38 40.364 175.194C40.1773 175.007 39.9207 174.914 39.594 174.914C39.2393 174.914 38.9733 175.021 38.796 175.236C38.628 175.45 38.53 175.716 38.502 176.034H36.164ZM44.5566 178.12C44.5566 176.514 44.8646 175.25 45.4806 174.326C46.1059 173.402 47.1092 172.94 48.4906 172.94C49.8719 172.94 50.8706 173.402 51.4866 174.326C52.1119 175.25 52.4246 176.514 52.4246 178.12C52.4246 179.744 52.1119 181.018 51.4866 181.942C50.8706 182.866 49.8719 183.328 48.4906 183.328C47.1092 183.328 46.1059 182.866 45.4806 181.942C44.8646 181.018 44.5566 179.744 44.5566 178.12ZM50.0726 178.12C50.0726 177.177 49.9699 176.454 49.7646 175.95C49.5592 175.436 49.1346 175.18 48.4906 175.18C47.8466 175.18 47.4219 175.436 47.2166 175.95C47.0112 176.454 46.9086 177.177 46.9086 178.12C46.9086 178.754 46.9459 179.282 47.0206 179.702C47.0952 180.112 47.2446 180.448 47.4686 180.71C47.7019 180.962 48.0426 181.088 48.4906 181.088C48.9386 181.088 49.2746 180.962 49.4986 180.71C49.7319 180.448 49.8859 180.112 49.9606 179.702C50.0352 179.282 50.0726 178.754 50.0726 178.12Z" fill="#9F9F9F"/>
<path d="M66.572 163.684C66.628 162.816 66.9593 162.139 67.566 161.654C68.182 161.168 68.966 160.926 69.918 160.926C70.5713 160.926 71.136 161.042 71.612 161.276C72.088 161.509 72.4473 161.826 72.69 162.228C72.9327 162.629 73.054 163.082 73.054 163.586C73.054 164.164 72.9 164.659 72.592 165.07C72.284 165.48 71.9153 165.756 71.486 165.896V165.952C72.0367 166.12 72.466 166.428 72.774 166.876C73.082 167.314 73.236 167.879 73.236 168.57C73.236 169.12 73.11 169.61 72.858 170.04C72.606 170.469 72.2327 170.81 71.738 171.062C71.2433 171.304 70.6507 171.426 69.96 171.426C68.952 171.426 68.1213 171.169 67.468 170.656C66.824 170.133 66.4787 169.386 66.432 168.416H67.972C68.0093 168.91 68.2007 169.316 68.546 169.634C68.8913 169.942 69.358 170.096 69.946 170.096C70.5153 170.096 70.954 169.942 71.262 169.634C71.57 169.316 71.724 168.91 71.724 168.416C71.724 167.762 71.514 167.3 71.094 167.03C70.6833 166.75 70.0487 166.61 69.19 166.61H68.826V165.294H69.204C69.96 165.284 70.534 165.158 70.926 164.916C71.3273 164.673 71.528 164.29 71.528 163.768C71.528 163.32 71.3833 162.965 71.094 162.704C70.8047 162.433 70.394 162.298 69.862 162.298C69.3393 162.298 68.9333 162.433 68.644 162.704C68.3547 162.965 68.182 163.292 68.126 163.684H66.572ZM66.39 186.62V185.164H69.302V195.37H67.692V186.62H66.39Z" fill="#9F9F9F"/>
</svg>
