<svg width="17" height="18" viewBox="0 0 17 18" fill="none" xmlns="http://www.w3.org/2000/svg">
<path d="M10.0938 0.5C9.14193 0.5 8.24544 0.682617 7.4043 1.04785C6.56315 1.40202 5.82992 1.89176 5.20459 2.51709C4.57926 3.14242 4.08952 3.87565 3.73535 4.7168C3.37012 5.55794 3.1875 6.45443 3.1875 7.40625C3.1875 8.22526 3.32308 9.00277 3.59424 9.73877C3.8654 10.4748 4.23893 11.1416 4.71484 11.7393L0.149414 16.3047C0.00553385 16.4486 -0.0664062 16.6229 -0.0664062 16.8276C-0.0664062 17.0324 0.00553385 17.2067 0.149414 17.3506C0.293294 17.4945 0.467611 17.5664 0.672363 17.5664C0.877116 17.5664 1.05143 17.4945 1.19531 17.3506L5.76074 12.7852C6.3584 13.2611 7.02523 13.6346 7.76123 13.9058C8.49723 14.1769 9.27474 14.3125 10.0938 14.3125C11.0456 14.3125 11.9421 14.1299 12.7832 13.7646C13.6243 13.4105 14.3576 12.9207 14.9829 12.2954C15.6082 11.6701 16.098 10.9368 16.4521 10.0957C16.8174 9.25456 17 8.35807 17 7.40625C17 6.45443 16.8174 5.55794 16.4521 4.7168C16.098 3.87565 15.6082 3.14242 14.9829 2.51709C14.3576 1.89176 13.6243 1.40202 12.7832 1.04785C11.9421 0.682617 11.0456 0.5 10.0938 0.5ZM10.0938 13.25C9.28581 13.25 8.52767 13.0951 7.81934 12.7852C7.111 12.4863 6.49121 12.0713 5.95996 11.54C5.42871 11.0088 5.01367 10.389 4.71484 9.68066C4.40495 8.97233 4.25 8.21419 4.25 7.40625C4.25 6.59831 4.40495 5.84017 4.71484 5.13184C5.01367 4.4235 5.42871 3.80371 5.95996 3.27246C6.49121 2.74121 7.111 2.32617 7.81934 2.02734C8.52767 1.71745 9.28581 1.5625 10.0938 1.5625C10.9017 1.5625 11.6598 1.71745 12.3682 2.02734C13.0765 2.32617 13.6963 2.74121 14.2275 3.27246C14.7588 3.80371 15.1738 4.4235 15.4727 5.13184C15.7826 5.84017 15.9375 6.59831 15.9375 7.40625C15.9375 8.21419 15.7826 8.97233 15.4727 9.68066C15.1738 10.389 14.7588 11.0088 14.2275 11.54C13.6963 12.0713 13.0765 12.4863 12.3682 12.7852C11.6598 13.0951 10.9017 13.25 10.0938 13.25Z" fill="#666666"/>
</svg>
