<svg width="29" height="29" viewBox="0 0 29 29" fill="none" xmlns="http://www.w3.org/2000/svg">
<g clip-path="url(#clip0_1_135)">
<path d="M5.38234 28.5601H21.9253C22.4175 28.5601 22.8322 28.3869 23.1694 28.0405C23.5067 27.6942 23.6753 27.284 23.6753 26.8101V8.43506C23.6753 8.19808 23.5933 7.993 23.4292 7.81982C23.2652 7.64665 23.0555 7.56006 22.8003 7.56006H7.98C7.96177 7.56006 7.93442 7.56006 7.89796 7.56006C7.86151 7.56006 7.81593 7.56006 7.76125 7.56006H5.38234C4.65317 7.56006 4.02882 7.31396 3.50929 6.82178C2.98976 6.32959 2.73 5.7098 2.73 4.9624C2.73 4.23324 2.9852 3.60889 3.49562 3.08936C4.00604 2.56982 4.62583 2.31006 5.355 2.31006H25.48V22.4351C25.48 22.672 25.5575 22.8771 25.7124 23.0503C25.8674 23.2235 26.0724 23.3101 26.3277 23.3101C26.5646 23.3101 26.7743 23.2235 26.9566 23.0503C27.1388 22.8771 27.23 22.672 27.23 22.4351V1.43506C27.23 1.19808 27.1388 0.993002 26.9566 0.819824C26.7743 0.646646 26.5646 0.560059 26.3277 0.560059H5.38234C4.17921 0.560059 3.14927 0.983887 2.2925 1.83154C1.43572 2.6792 0.998225 3.70459 0.979996 4.90771V24.1577C0.979996 25.3608 1.41294 26.3953 2.27882 27.2612C3.14471 28.1271 4.17921 28.5601 5.38234 28.5601Z" fill="white"/>
</g>
<defs>
<clipPath id="clip0_1_135">
<rect width="28" height="28" fill="white" transform="matrix(1 0 0 -1 0.979996 28.5601)"/>
</clipPath>
</defs>
</svg>
