<svg width="29" height="29" viewBox="0 0 29 29" fill="none" xmlns="http://www.w3.org/2000/svg">
<g clip-path="url(#clip0_1_121)">
<path d="M3.73001 28.5601H24.73C25.204 28.5601 25.6141 28.3869 25.9605 28.0405C26.3068 27.6942 26.48 27.284 26.48 26.8101V2.31006C26.48 1.8361 26.3068 1.42594 25.9605 1.07959C25.6141 0.733236 25.204 0.560059 24.73 0.560059H3.73001C3.25605 0.560059 2.8459 0.733236 2.49954 1.07959C2.15319 1.42594 1.98001 1.8361 1.98001 2.31006V26.8101C1.98001 27.284 2.15319 27.6942 2.49954 28.0405C2.8459 28.3869 3.25605 28.5601 3.73001 28.5601ZM3.73001 2.31006H24.73V26.8101H3.73001V2.31006ZM20.355 5.81006H13.355C13.118 5.81006 12.913 5.89665 12.7398 6.06982C12.5666 6.243 12.48 6.44808 12.48 6.68506C12.48 6.92204 12.5666 7.12712 12.7398 7.30029C12.913 7.47347 13.118 7.56006 13.355 7.56006H20.355C20.592 7.56006 20.7971 7.47347 20.9702 7.30029C21.1434 7.12712 21.23 6.92204 21.23 6.68506C21.23 6.44808 21.1434 6.243 20.9702 6.06982C20.7971 5.89665 20.592 5.81006 20.355 5.81006ZM20.355 11.0601H8.10501C7.86803 11.0601 7.66295 11.1466 7.48978 11.3198C7.3166 11.493 7.23001 11.6981 7.23001 11.9351C7.23001 12.172 7.3166 12.3771 7.48978 12.5503C7.66295 12.7235 7.86803 12.8101 8.10501 12.8101H20.355C20.592 12.8101 20.7971 12.7235 20.9702 12.5503C21.1434 12.3771 21.23 12.172 21.23 11.9351C21.23 11.6981 21.1434 11.493 20.9702 11.3198C20.7971 11.1466 20.592 11.0601 20.355 11.0601ZM20.355 16.3101H8.10501C7.86803 16.3101 7.66295 16.3966 7.48978 16.5698C7.3166 16.743 7.23001 16.9481 7.23001 17.1851C7.23001 17.422 7.3166 17.6271 7.48978 17.8003C7.66295 17.9735 7.86803 18.0601 8.10501 18.0601H20.355C20.592 18.0601 20.7971 17.9735 20.9702 17.8003C21.1434 17.6271 21.23 17.422 21.23 17.1851C21.23 16.9481 21.1434 16.743 20.9702 16.5698C20.7971 16.3966 20.592 16.3101 20.355 16.3101ZM20.355 21.5601H8.10501C7.86803 21.5601 7.66295 21.6466 7.48978 21.8198C7.3166 21.993 7.23001 22.1981 7.23001 22.4351C7.23001 22.672 7.3166 22.8771 7.48978 23.0503C7.66295 23.2235 7.86803 23.3101 8.10501 23.3101H20.355C20.592 23.3101 20.7971 23.2235 20.9702 23.0503C21.1434 22.8771 21.23 22.672 21.23 22.4351C21.23 22.1981 21.1434 21.993 20.9702 21.8198C20.7971 21.6466 20.592 21.5601 20.355 21.5601Z" fill="white"/>
</g>
<defs>
<clipPath id="clip0_1_121">
<rect width="28" height="28" fill="white" transform="matrix(1 0 0 -1 0.230011 28.5601)"/>
</clipPath>
</defs>
</svg>
