<svg width="61" height="81" viewBox="0 0 61 81" fill="none" xmlns="http://www.w3.org/2000/svg">
<path d="M56.6322 0.560059C58.6634 0.560059 60.3822 2.27881 60.3822 4.31006V11.8101C60.3822 13.9976 58.6634 15.5601 56.6322 15.5601H4.13219C1.94469 15.5601 0.382191 13.9976 0.382191 11.8101V4.31006C0.382191 2.27881 1.94469 0.560059 4.13219 0.560059H56.6322ZM5.38219 75.5601V20.5601H55.3822V75.5601C55.3822 78.3726 53.0384 80.5601 50.3822 80.5601H10.3822C7.56969 80.5601 5.38219 78.3726 5.38219 75.5601ZM15.3822 46.8101V54.3101C15.3822 55.0913 15.8509 55.5601 16.6322 55.5601H25.3822V64.3101C25.3822 65.0913 25.8509 65.5601 26.6322 65.5601H34.1322C34.7572 65.5601 35.3822 65.0913 35.3822 64.3101V55.5601H44.1322C44.7572 55.5601 45.3822 55.0913 45.3822 54.3101V46.8101C45.3822 46.1851 44.7572 45.5601 44.1322 45.5601H35.3822V36.8101C35.3822 36.1851 34.7572 35.5601 34.1322 35.5601H26.6322C25.8509 35.5601 25.3822 36.1851 25.3822 36.8101V45.5601H16.6322C15.8509 45.5601 15.3822 46.1851 15.3822 46.8101Z" fill="white"/>
</svg>
