<svg width="104" height="83" viewBox="0 0 104 83" fill="none" xmlns="http://www.w3.org/2000/svg">
<path d="M25.9273 32.5601C38.5836 32.5601 48.8961 41.7788 50.9273 53.6538C50.9273 54.4351 50.3023 55.0601 49.5211 55.0601H2.17734C1.39609 55.0601 0.771091 54.4351 0.927341 53.6538C2.80234 41.7788 13.1148 32.5601 25.9273 32.5601ZM49.5211 60.0601C50.3023 60.0601 50.9273 60.8413 50.7711 61.6226C48.8961 73.4976 38.5836 82.5601 25.9273 82.5601C13.1148 82.5601 2.80234 73.4976 0.927341 61.6226C0.771091 60.8413 1.39609 60.0601 2.17734 60.0601H49.5211ZM93.5836 9.90381C102.334 18.8101 103.115 32.4038 96.0836 42.2476C95.6148 42.8726 94.6773 42.8726 94.2086 42.4038L61.0836 9.27881C60.6148 8.81006 60.6148 7.87256 61.2398 7.40381C71.0836 0.372559 84.6773 1.15381 93.5836 9.90381ZM57.6461 12.8726L90.6148 45.8413C91.0836 46.4663 91.0836 47.4038 90.4586 47.8726C80.6148 54.9038 67.0211 54.1226 58.1148 45.3726C49.3648 36.4663 48.5836 22.8726 55.6148 13.0288C56.0836 12.4038 57.0211 12.4038 57.6461 12.8726Z" fill="white"/>
</svg>
