<svg width="8" height="5" viewBox="0 0 8 5" fill="none" xmlns="http://www.w3.org/2000/svg">
<path d="M6.2968 0.542969L3.7675 3.07227L1.2382 0.542969C1.15617 0.451823 1.05363 0.40625 0.930588 0.40625C0.807541 0.40625 0.705002 0.451823 0.622971 0.542969C0.531825 0.625 0.486252 0.72526 0.486252 0.84375C0.486252 0.96224 0.531825 1.06706 0.622971 1.1582L3.45305 3.98828C3.49862 4.03385 3.54875 4.06803 3.60344 4.09082C3.65813 4.11361 3.71281 4.125 3.7675 4.125C3.82219 4.125 3.87688 4.11361 3.93156 4.09082C3.98625 4.06803 4.03638 4.03385 4.08195 3.98828L6.91203 1.1582C7.00318 1.06706 7.04875 0.96224 7.04875 0.84375C7.04875 0.72526 7.00318 0.625 6.91203 0.542969C6.83 0.451823 6.72746 0.40625 6.60442 0.40625C6.48137 0.40625 6.37883 0.451823 6.2968 0.542969Z" fill="black" fill-opacity="0.6"/>
</svg>
